<svg width="105" height="30" viewBox="0 0 105 30" fill="none" xmlns="http://www.w3.org/2000/svg">
  <g opacity="0.9" clip-path="url(#clip0_1701_1147)">
    <path d="M35.4412 0.503906H35.8055V29.4975H35.4412V0.503906ZM98.9142 21.6544V25.5664C98.9142 26.1453 98.7097 26.2025 98.275 26.2025H98.1343V26.4252H100.576V26.2025H100.436C100.084 26.2025 99.7964 26.1389 99.7964 25.5664V21.6544H101.005C101.497 21.6544 101.535 22.0869 101.548 22.3541L101.765 22.2714V21.6798C101.765 21.4826 101.817 21.2854 101.848 21.0882H101.669C101.669 21.3109 101.471 21.3172 101.273 21.3172H97.5526C97.3544 21.3172 97.169 21.3172 97.1115 21.1073H96.9325C96.9329 21.3202 96.9179 21.5327 96.8877 21.7434C96.8877 21.9533 96.8302 22.1633 96.7982 22.3795H97.022C97.1307 21.8452 97.1562 21.7434 97.706 21.7434L98.9142 21.6544ZM92.9371 22.7676C92.8888 22.3623 92.8696 21.9542 92.8795 21.5462C92.2832 21.3574 91.668 21.2337 91.0448 21.1773C89.5298 21.1773 88.2001 22.1315 88.2001 23.7662C88.2001 25.6046 89.4275 26.5015 91.0832 26.5015C91.6624 26.5054 92.2364 26.3929 92.7708 26.1707C92.8036 25.7724 92.8656 25.3769 92.9562 24.9876H92.7517C92.6867 25.335 92.5002 25.6483 92.2252 25.8719C91.9502 26.0954 91.6045 26.2148 91.2494 26.2089C89.8558 26.2089 89.2357 24.9748 89.2357 23.7472C89.2357 22.5195 89.875 21.5208 91.0768 21.5208C91.4539 21.4914 91.8285 21.6028 92.1275 21.8333C92.4265 22.0638 92.6285 22.3969 92.6941 22.7676H92.9371ZM82.0695 26.3997H84.3133V26.1771H84.211C83.9489 26.1771 83.6677 26.1389 83.6677 25.7573V21.9406C83.6677 21.559 83.9489 21.5208 84.211 21.5208H84.3133V21.3045H82.0695V21.4954H82.1718C82.4339 21.4954 82.7151 21.5335 82.7151 21.9152V25.7318C82.7151 26.1135 82.4339 26.1516 82.1718 26.1516H82.0695V26.3997ZM73.9827 25.7636C73.9827 26.0371 73.7334 26.158 73.4585 26.158H73.3243V26.3806H75.6704V26.158H75.5361C75.1973 26.158 74.9352 26.158 74.9352 25.5728V24.0398H75.4211C75.8753 24.8645 76.3857 25.6572 76.9489 26.4124H78.3617V26.1898C78.2138 26.1873 78.0692 26.1452 77.9433 26.068C77.8173 25.9908 77.7145 25.8812 77.6457 25.7509L76.3672 23.8744C76.6513 23.7977 76.9035 23.6331 77.0874 23.4044C77.2712 23.1757 77.3772 22.8948 77.39 22.6022C77.39 21.5653 76.5654 21.33 75.6384 21.33H73.3179V21.4954H73.4521C73.6823 21.4954 73.9763 21.4954 73.9763 22.0551L73.9827 25.7636ZM74.9224 21.559C75.063 21.551 75.2038 21.551 75.3444 21.559C75.4881 21.5485 75.6324 21.569 75.7674 21.619C75.9025 21.6691 76.0251 21.7474 76.127 21.8488C76.2289 21.9502 76.3077 22.0723 76.3579 22.2066C76.4082 22.341 76.4288 22.4846 76.4183 22.6276C76.4183 23.4927 76.022 23.7726 75.2868 23.7726H74.9288L74.9224 21.559ZM66.5544 21.6289V25.5664C66.5544 26.1453 66.3498 26.2025 65.9151 26.2025H65.7745V26.4252H68.2165V26.2025H68.0759C67.7243 26.2025 67.4366 26.1389 67.4366 25.5664V21.6544H68.6448C69.1371 21.6544 69.1754 22.0869 69.1882 22.3541L69.4119 22.2714V21.6798C69.4119 21.4826 69.4631 21.2854 69.495 21.0882H69.3161C69.3161 21.3109 69.1179 21.3172 68.9197 21.3172H65.2055C65.0074 21.3172 64.822 21.3172 64.7645 21.1073H64.5663C64.5667 21.3202 64.5517 21.5327 64.5215 21.7434C64.5215 21.9533 64.464 22.1633 64.432 22.3795H64.6558C64.7645 21.8452 64.79 21.7434 65.3398 21.7434L66.5544 21.6289ZM60.3215 22.3096C60.2742 21.9616 60.2486 21.6111 60.2448 21.26C60.0147 21.26 59.3882 21.1519 59.1836 21.1519C58.9693 21.1275 58.7522 21.1499 58.5475 21.2176C58.3428 21.2853 58.1554 21.3966 57.9984 21.5438C57.8414 21.691 57.7185 21.8704 57.6384 22.0697C57.5582 22.269 57.5227 22.4833 57.5343 22.6976C57.5343 24.4596 59.695 24.0589 59.695 25.3565C59.6952 25.4698 59.6722 25.5819 59.6273 25.686C59.5824 25.7901 59.5167 25.8841 59.4342 25.9621C59.3516 26.04 59.2539 26.1005 59.1471 26.1396C59.0403 26.1788 58.9265 26.1959 58.8129 26.1898C58.1161 26.1898 57.7581 25.6491 57.675 25.0257L57.4704 25.0703C57.5087 25.4456 57.5599 25.8081 57.5918 26.1834C57.9503 26.3837 58.351 26.497 58.7617 26.5142C58.9819 26.539 59.2048 26.5179 59.4164 26.4524C59.6279 26.3868 59.8234 26.2782 59.9906 26.1335C60.1577 25.9887 60.2927 25.811 60.3871 25.6115C60.4815 25.4121 60.5332 25.1952 60.5389 24.9748C60.5389 23.2192 58.3334 23.5818 58.3334 22.3668C58.3198 22.2446 58.3335 22.1209 58.3736 22.0045C58.4137 21.8882 58.4792 21.7822 58.5654 21.694C58.6515 21.6058 58.7562 21.5377 58.872 21.4946C58.9877 21.4514 59.1116 21.4343 59.2348 21.4445C59.4677 21.4665 59.6841 21.5736 59.8424 21.7451C60.0006 21.9166 60.0893 22.1404 60.0914 22.3732L60.3215 22.3096ZM51.3206 26.3997H53.5645V26.1771H53.4622C53.2001 26.1771 52.9188 26.1389 52.9188 25.7573V21.9406C52.9188 21.559 53.2001 21.5208 53.4622 21.5208H53.5645V21.3045H51.3206V21.4954H51.4229C51.6914 21.4954 51.9663 21.5335 51.9663 21.9152V25.7318C51.9663 26.1135 51.685 26.1516 51.4229 26.1516H51.3206V26.3997ZM42.1343 26.3997H44.6914C45.0414 26.4233 45.3926 26.3749 45.723 26.2576C46.0535 26.1404 46.3561 25.9567 46.6122 25.718C46.8682 25.4794 47.0721 25.1908 47.2113 24.8704C47.3505 24.5499 47.4219 24.2044 47.4211 23.8553C47.4211 22.3223 46.3087 21.3109 44.4996 21.3109H42.1407V21.4954H42.243C42.5051 21.4954 42.7864 21.5335 42.7864 21.9152V25.7318C42.7864 26.1135 42.5051 26.1516 42.243 26.1516H42.1407L42.1343 26.3997ZM43.7261 21.5908C43.8859 21.5908 44.0585 21.5526 44.2247 21.5526C45.401 21.5526 46.3855 22.036 46.3855 23.9698C46.3855 25.0957 45.7462 26.1389 44.4676 26.1389C43.9371 26.1389 43.7005 26.0753 43.7005 25.5601L43.7261 21.5908ZM104.77 13.5504C104.725 13.2023 104.701 12.8518 104.7 12.5008C104.469 12.5008 103.843 12.3927 103.638 12.3927C103.429 12.3727 103.218 12.3974 103.018 12.465C102.819 12.5326 102.637 12.6417 102.483 12.7849C102.329 12.9281 102.208 13.1022 102.127 13.2956C102.047 13.489 102.008 13.6973 102.015 13.9066C102.015 15.6686 104.175 15.2679 104.175 16.5655C104.176 16.6811 104.152 16.7955 104.106 16.9015C104.059 17.0074 103.991 17.1026 103.906 17.181C103.82 17.2593 103.72 17.3192 103.61 17.3567C103.5 17.3942 103.383 17.4085 103.268 17.3988C102.571 17.3988 102.213 16.8582 102.123 16.2348L101.919 16.2793C101.957 16.6546 102.008 17.0172 102.04 17.3925C102.399 17.5929 102.799 17.7063 103.21 17.7233C103.431 17.749 103.654 17.7286 103.867 17.6635C104.079 17.5984 104.275 17.49 104.443 17.3451C104.611 17.2003 104.747 17.0222 104.841 16.8222C104.936 16.6223 104.988 16.4049 104.994 16.1839C104.994 14.4282 102.788 14.7908 102.788 13.5759C102.774 13.453 102.788 13.3287 102.829 13.2119C102.869 13.0951 102.935 12.9887 103.022 12.9004C103.109 12.8121 103.215 12.7441 103.331 12.7014C103.448 12.6587 103.572 12.6424 103.696 12.6535C103.931 12.6725 104.151 12.7783 104.312 12.9502C104.472 13.122 104.563 13.3474 104.565 13.5822L104.77 13.5504ZM93.7681 17.6151H97.706C97.7699 17.2271 97.8594 16.8391 97.9553 16.451L97.7508 16.4002C97.527 17.2335 97.1115 17.2907 96.2549 17.2907C95.7818 17.2907 95.3599 17.2907 95.3599 16.8136V15.1343H96.2421C96.7471 15.1343 96.7727 15.4206 96.8174 15.8595L97.0412 15.8149V14.1229H96.8174C96.7727 14.5173 96.6768 14.759 96.2357 14.759H95.3599V12.8507H96.3827C97.1562 12.8507 97.2457 13.2324 97.2777 13.7094L97.5014 13.6522V12.5326H93.7809V12.7553H93.8832C94.1453 12.7553 94.4266 12.7934 94.4266 13.1687V16.9854C94.4266 17.367 94.1453 17.4052 93.8832 17.4052H93.7809L93.7681 17.6151ZM89.632 13.9193C89.5622 13.499 89.5322 13.0731 89.5425 12.6471C89.2613 12.6303 88.9827 12.5834 88.7115 12.5072C88.3646 12.4196 88.0082 12.3747 87.6503 12.3736C86.1608 12.3736 84.7097 13.2578 84.7097 14.9562C84.7097 16.6546 85.9562 17.7042 87.5992 17.7042C88.2949 17.6959 88.9859 17.5888 89.6512 17.3861V17.2525L89.485 17.1571V16.0694C89.485 15.8149 89.6256 15.6941 89.8814 15.6941H89.9772V15.4714H87.8868V15.6941H87.9827C88.2576 15.6941 88.5453 15.7641 88.5453 16.0694V17.2653C88.2894 17.382 88.0074 17.4302 87.727 17.4052C86.3206 17.4052 85.7389 16.133 85.7389 14.9117C85.7389 13.6904 86.3782 12.7235 87.7014 12.7235C88.0878 12.6724 88.4793 12.7695 88.7963 12.9951C89.1133 13.2208 89.3321 13.5581 89.4083 13.9384L89.632 13.9193ZM76.559 17.6151H80.4969C80.5608 17.2271 80.6503 16.8391 80.7462 16.451L80.548 16.4065C80.3243 17.2398 79.9087 17.2971 79.0521 17.2971C78.5791 17.2971 78.1572 17.2971 78.1572 16.82V15.1343H79.0393C79.5444 15.1343 79.5699 15.4206 79.6147 15.8595L79.832 15.8149V14.1229H79.6147C79.5699 14.5173 79.474 14.759 79.0329 14.759H78.1572V12.8507H79.18C79.9535 12.8507 80.043 13.2324 80.075 13.7094L80.2987 13.6522V12.5326H76.5782V12.7553H76.6804C76.9425 12.7553 77.2238 12.7934 77.2238 13.1687V16.9854C77.2238 17.367 76.9425 17.4052 76.6804 17.4052H76.5782L76.559 17.6151ZM70.1663 13.1179C70.1663 12.7298 70.39 12.7235 70.6649 12.7235H70.8503V12.5008H68.5681V12.7235H68.6704C68.9325 12.7235 69.2202 12.7616 69.2202 13.1369V16.9027C69.2202 17.3543 68.9325 17.3925 68.6704 17.3925H68.5681V17.6151H72.4037C72.4932 17.1953 72.5955 16.7882 72.6786 16.3429H72.4677C72.4225 16.5309 72.3446 16.7096 72.2375 16.8709C72.0645 17.0894 71.8118 17.2311 71.5343 17.2653C71.2111 17.2943 70.8859 17.2943 70.5626 17.2653C70.3261 17.2653 70.1215 17.1508 70.1215 16.8582L70.1663 13.1179ZM62.1754 13.1179C62.1754 12.7298 62.3992 12.7235 62.674 12.7235H62.8594V12.5008H60.5772V12.7235H60.7307C60.9928 12.7235 61.2804 12.7616 61.2804 13.1369V16.9027C61.2804 17.3543 60.9928 17.3925 60.7307 17.3925H60.6284V17.6151H64.464C64.5535 17.1953 64.6558 16.7882 64.7389 16.3429H64.5663C64.5212 16.5309 64.4433 16.7096 64.3361 16.8709C64.1631 17.0894 63.9104 17.2311 63.6329 17.2653C63.3097 17.2943 62.9845 17.2943 62.6613 17.2653C62.4247 17.2653 62.2202 17.1508 62.2202 16.8582L62.1754 13.1179ZM52.1133 14.8353C52.1133 13.8557 52.4969 12.7108 53.7818 12.7108C55.0667 12.7108 55.5845 13.983 55.5845 15.0771C55.5845 16.1712 55.3352 17.3988 53.9097 17.3988C52.7206 17.3988 52.1133 16.1266 52.1133 14.8544V14.8353ZM51.0841 15.1089C51.0782 15.4653 51.1463 15.8191 51.2842 16.1481C51.4221 16.4771 51.6268 16.7742 51.8854 17.0208C52.1441 17.2675 52.4512 17.4583 52.7874 17.5813C53.1236 17.7044 53.4817 17.757 53.8393 17.736C54.211 17.7478 54.5811 17.683 54.9264 17.5456C55.2717 17.4083 55.5847 17.2015 55.8458 16.9381C56.107 16.6746 56.3105 16.3604 56.4438 16.0149C56.577 15.6695 56.6371 15.3004 56.6202 14.9308C56.6202 13.3723 55.3416 12.3863 53.801 12.3863C53.4471 12.3888 53.0971 12.4611 52.7714 12.5989C52.4457 12.7367 52.1507 12.9375 51.9034 13.1894C51.6561 13.4414 51.4615 13.7396 51.3307 14.0669C51.2 14.3942 51.1357 14.744 51.1416 15.0961L51.0841 15.1089ZM47.0759 13.983C47.0276 13.5777 47.0084 13.1696 47.0183 12.7616C46.4217 12.5753 45.8066 12.4537 45.1836 12.3991C43.6686 12.3991 42.3389 13.3532 42.3389 14.988C42.3389 16.8263 43.5663 17.7296 45.222 17.7296C45.7991 17.733 46.3709 17.6205 46.9033 17.3988C46.9364 17.0005 46.9983 16.6051 47.0887 16.2157H46.8841C46.8192 16.5631 46.6326 16.8764 46.3576 17.1C46.0826 17.3236 45.7369 17.443 45.3818 17.437C43.9882 17.437 43.3681 16.203 43.3681 14.9753C43.3681 13.7476 44.0074 12.7489 45.2092 12.7489C45.5953 12.7118 45.981 12.8228 46.2876 13.0593C46.5942 13.2958 46.7984 13.6398 46.8585 14.0211L47.0759 13.983ZM79.7873 6.05074C79.7873 5.07114 80.1708 3.92615 81.4558 3.92615C82.7407 3.92615 83.2585 5.19836 83.2585 6.29246C83.2585 7.38656 83.0092 8.61424 81.5836 8.61424C80.3882 8.61424 79.7873 7.34203 79.7873 6.06982V6.05074ZM78.7581 6.32426C78.7522 6.68011 78.8202 7.03334 78.9577 7.36189C79.0952 7.69044 79.2993 7.98725 79.5572 8.23378C79.8152 8.48032 80.1215 8.67128 80.4569 8.79475C80.7924 8.91821 81.1498 8.97153 81.5069 8.95137C81.8786 8.96315 82.2487 8.89836 82.594 8.76105C82.9393 8.62373 83.2523 8.41688 83.5134 8.15346C83.7745 7.89004 83.9781 7.57575 84.1114 7.23032C84.2446 6.88489 84.3047 6.51577 84.2877 6.14615C84.2877 4.5877 83.0092 3.60173 81.4686 3.60173C81.1103 3.59659 80.7547 3.66301 80.4228 3.79705C80.0908 3.93109 79.7892 4.13003 79.5359 4.3821C79.2826 4.63417 79.0827 4.93424 78.948 5.26456C78.8133 5.59488 78.7465 5.94874 78.7517 6.30518L78.7581 6.32426ZM69.6293 3.71623H68.095V3.93887H68.1909C68.517 3.93887 68.8302 4.07881 68.8302 4.48592C68.8218 4.91121 68.7919 5.33581 68.7407 5.75813L68.517 7.79366C68.453 8.32163 68.4275 8.56971 67.8777 8.58879H67.7754V8.81143H69.6485V8.58879H69.559C69.3969 8.59948 69.2346 8.57111 69.0859 8.5061C68.99 8.44249 68.9325 8.32163 68.9325 8.09263L69.1818 4.8803L70.9654 8.91957H71.1444L73.0174 4.79761L73.222 7.88908V8.2453C73.222 8.56971 72.9727 8.56971 72.5827 8.58879V8.81143H74.8585V8.58879C74.4174 8.58879 74.2192 8.54427 74.2192 8.18169L73.938 4.82942C73.9134 4.63955 73.9005 4.44836 73.8996 4.25692C73.8996 3.93251 74.3663 3.91979 74.5836 3.91979H74.6476V3.71623H73.1197L71.3745 7.53286L69.6293 3.71623ZM61.8558 6.61051H60.475L61.159 4.53681L61.8558 6.61051ZM60.3407 7.01762H62.0092L62.2969 7.87C62.366 8.0398 62.4154 8.21695 62.4439 8.39796C62.4439 8.58243 62.1562 8.60788 61.99 8.60788H61.9069V8.83051H64.0293V8.60788H63.9845C63.8825 8.61908 63.7796 8.59648 63.6917 8.54358C63.6039 8.49068 63.5361 8.41043 63.4987 8.31527C63.4028 8.09263 63.3133 7.82547 63.2238 7.57103L61.8686 3.7544L61.8046 3.56993C61.7969 3.56546 61.788 3.56311 61.7791 3.56311C61.7701 3.56311 61.7613 3.56546 61.7535 3.56993H61.696C61.493 3.69332 61.279 3.79767 61.0567 3.88162C60.9717 4.18653 60.8627 4.4843 60.7307 4.77217L59.5736 8.13716C59.5373 8.27711 59.4543 8.40062 59.3381 8.48733C59.2219 8.57405 59.0795 8.61881 58.9343 8.61424H58.8896V8.83687H60.5708V8.61424H60.4877C60.2448 8.61424 59.938 8.57607 59.938 8.3598C59.9717 8.16409 60.0253 7.97228 60.0978 7.7873L60.3407 7.01762ZM52.5736 4.32053C52.5736 3.93251 52.7973 3.92615 53.0722 3.92615H53.2576V3.71623H50.9754V3.93887H51.0777C51.3398 3.93887 51.6275 3.97704 51.6275 4.3587V8.13716C51.6275 8.58879 51.3398 8.62696 51.0777 8.62696H50.9754V8.8496H54.811C54.9005 8.42977 55.0028 8.02266 55.0859 7.57739H54.875C54.8302 7.76553 54.7523 7.94429 54.6448 8.10535C54.4722 8.32439 54.2193 8.46625 53.9416 8.49974C53.6184 8.52906 53.2932 8.52906 52.9699 8.49974C52.7334 8.49974 52.5288 8.38524 52.5288 8.09263L52.5736 4.32053ZM45.0558 6.61051H43.6813L44.3654 4.53681L45.0558 6.61051ZM43.5407 7.01762H45.2092L45.4969 7.87C45.5662 8.03976 45.6155 8.21693 45.6439 8.39796C45.6439 8.58243 45.3562 8.60788 45.19 8.60788H45.1069V8.83051H47.2293V8.60788H47.1782C47.0761 8.61908 46.9732 8.59648 46.8853 8.54358C46.7975 8.49068 46.7297 8.41043 46.6923 8.31527C46.5964 8.09263 46.5069 7.82547 46.4174 7.57103L45.0622 3.7544L44.9982 3.56993C44.9905 3.56546 44.9816 3.56311 44.9727 3.56311C44.9637 3.56311 44.9549 3.56546 44.9471 3.56993H44.8896C44.6866 3.69332 44.4726 3.79767 44.2503 3.88162C44.182 4.19133 44.0901 4.49541 43.9754 4.79125L42.7736 8.13716C42.7373 8.27711 42.6543 8.40062 42.5381 8.48733C42.4219 8.57405 42.2795 8.61881 42.1343 8.61424H42.0896V8.83687H43.7708V8.61424H43.6877C43.4448 8.61424 43.138 8.57607 43.138 8.3598C43.1715 8.16404 43.225 7.97221 43.2978 7.7873L43.5407 7.01762Z" fill="white"></path>
    <path d="M28.7671 18.3148C27.1802 18.3148 25.6582 17.6875 24.5361 16.5709C23.414 15.4544 22.7836 13.94 22.7836 12.3609V12.2655H20.7059C20.0283 9.51748 17.5416 7.12573 14.5753 7.12573C11.6091 7.12573 9.11598 9.52385 8.43836 12.2655H6.35434V12.3609C6.35434 13.9389 5.72481 15.4523 4.60405 16.5687C3.4833 17.6851 1.963 18.3131 0.377169 18.3148H0V29.5039H29.1379V18.2766L28.7671 18.3148Z" fill="white"></path>
    <path d="M0.115069 16.3493H0.377169C1.44537 16.3476 2.46944 15.925 3.22537 15.174C3.9813 14.423 4.40758 13.4047 4.41096 12.3418V10.3063H7.03196C7.65777 8.81858 8.70184 7.54224 10.0388 6.63053C11.3757 5.71881 12.9488 5.21048 14.569 5.16655C16.186 5.21332 17.7553 5.72303 19.0886 6.63462C20.422 7.54621 21.463 8.82101 22.0868 10.3063H24.7269V12.3354C24.7269 13.4017 25.1526 14.4242 25.9103 15.1781C26.668 15.9321 27.6956 16.3556 28.7671 16.3556H29.1443V0.503906H0V16.3365L0.115069 16.3493Z" fill="white"></path>
  </g>
  <defs>
    <clipPath id="clip0_1701_1147">
      <rect width="105" height="29" fill="white" transform="translate(0 0.503906)"></rect>
    </clipPath>
  </defs>
</svg>