<svg width="90" height="24" viewBox="0 0 90 24" fill="none" xmlns="http://www.w3.org/2000/svg">
  <g opacity="0.8" clip-path="url(#clip0_1701_1260)">
    <path d="M62.2268 19.5364H59.6807L59.634 11.3339C59.634 10.1654 58.396 10.1421 58.396 10.1421H57.2748C57.2748 10.1421 57.1113 10.1654 56.9478 10.1888C55.3361 10.5393 54.8222 11.7779 54.8222 13.2034L54.8456 19.5598H52.2528V11.3806C52.2528 10.1888 50.9914 10.1421 50.9914 10.1421H49.8702C49.8702 10.1421 49.7067 10.1654 49.5432 10.1888C47.9315 10.5393 47.4176 11.7779 47.4409 13.2034V19.5598H44.8481V12.7127V7.57147H47.4176V8.64644C48.165 7.73505 49.2862 7.5481 49.8235 7.5481H50.7578C51.9024 7.5481 52.9068 7.922 53.9579 8.88013C55.0558 7.94537 55.9901 7.5481 57.2281 7.5481H58.1624C60.5216 7.5481 62.1801 9.04371 62.2035 11.4975L62.2268 19.5364Z" fill="white"></path>
    <path d="M82.2216 7.52498H78.2974V5.11797L75.7046 3.55225V19.5367H78.2974L78.274 10.1189H82.2683C82.5252 10.1189 82.8055 10.1657 83.0391 10.3059C83.4129 10.4928 83.6932 10.8901 83.6698 11.5678V19.56H86.2626L86.2392 11.451C86.2626 8.99723 84.5574 7.52498 82.2216 7.52498Z" fill="white"></path>
    <path d="M72.0842 5.00106L69.6549 3.52881H69.5614L69.5381 10.1189V15.3068C69.5381 17.4334 70.4724 19.0225 72.3878 19.4665C72.7615 19.5366 73.0185 19.5366 73.0185 19.5366H73.5557L73.5324 16.9426H73.1586C72.0374 16.9426 72.0608 15.6106 72.0608 15.6106V10.0955H73.5557L73.5791 7.52491H72.0842V5.00106Z" fill="white"></path>
    <path d="M64.5859 19.5366H67.1554V7.52491H64.5859V19.5366ZM64.7027 3.52881H64.5859V6.23962H67.1086V5.00106L64.7027 3.52881Z" fill="white"></path>
    <path d="M32.0245 15.1198C33.169 16.335 34.7808 17.1997 36.5794 17.1997C38.7283 17.1763 40.2466 16.3584 40.2466 14.8861C40.2466 11.4509 30.3427 14.7693 30.3427 8.48303C30.3427 5.74885 33.2157 3.85596 36.6961 3.85596C39.2422 3.85596 41.2978 4.67387 42.8161 6.21623L40.7138 8.10912C39.3123 6.73035 38.0509 6.26297 36.556 6.26297C34.1968 6.26297 33.3325 7.40805 33.3325 8.34281C33.3325 11.8014 43.2365 8.34281 43.2365 14.7459C43.2365 17.9475 39.9897 19.8871 36.4626 19.8871C34.3136 19.8871 31.8142 19.0692 29.8755 17.0361L32.0245 15.1198Z" fill="white"></path>
    <path d="M88.692 16.8958C89.4161 16.8958 90.0234 17.48 90.0234 18.2278C90.0234 18.9522 89.4395 19.5598 88.692 19.5598C87.9679 19.5598 87.3606 18.9756 87.3606 18.2278C87.3606 17.5033 87.9446 16.8958 88.692 16.8958ZM88.692 19.256C89.2059 19.256 89.6264 18.8354 89.6264 18.2278C89.6264 17.6202 89.2059 17.1995 88.692 17.1995C88.1548 17.1995 87.7577 17.6202 87.7577 18.2278C87.7343 18.8354 88.1548 19.256 88.692 19.256ZM88.1548 17.48H88.7154C89.0891 17.48 89.2993 17.5968 89.2993 17.924C89.2993 18.181 89.1358 18.2979 88.9022 18.3213L89.2993 18.9522H88.9723L88.6219 18.3213H88.4818V18.9522H88.1781V17.48H88.1548ZM88.7154 18.0876C88.8555 18.0876 88.9723 18.0642 88.9723 17.9006C88.9723 17.7604 88.8088 17.737 88.692 17.737H88.4584V18.1109L88.7154 18.0876Z" fill="white"></path>
    <path d="M5.83961 13.9046H9.97405L7.91851 8.8335L5.83961 13.9046ZM21.373 19.2094C17.1451 19.2094 13.7815 15.9844 13.7815 11.8481C13.7815 7.68842 17.1451 4.48686 21.373 4.48686C24.1059 4.48686 26.4651 5.81889 27.7965 7.89874C25.6943 3.22493 20.2518 0 14.3421 0C6.7973 0 0 5.25803 0 12.0351C0 14.0214 0.583961 15.8909 1.61173 17.5268L7.1944 4.76728H8.78277L14.7859 18.9289H11.9595L10.885 16.2649H4.88191L3.50376 19.8403C6.21334 22.4343 10.1609 24.0701 14.3421 24.0701C20.7189 24.0701 26.5819 20.2843 28.2403 15.0263C27.0257 17.5268 24.4329 19.2094 21.373 19.2094ZM16.5144 11.8481C16.5144 14.6057 18.8035 16.7322 21.3496 16.7322C23.8957 16.7322 26.1848 14.5823 26.1848 11.8481C26.1848 9.09056 23.8957 6.96397 21.3496 6.96397C18.8269 6.94061 16.5144 9.09056 16.5144 11.8481Z" fill="white"></path>
  </g>
  <defs>
    <clipPath id="clip0_1701_1260">
      <rect width="90" height="24" fill="white"></rect>
    </clipPath>
  </defs>
</svg>