<svg width="123" height="22" viewBox="0 0 123 22" fill="none" xmlns="http://www.w3.org/2000/svg">
  <path d="M0 10.6318C0 4.77476 4.5254 0 10.0766 0V0.38198V0.763961C4.88743 0.827624 0.724064 5.2204 0.724064 10.6318C0.724064 16.0432 4.88743 20.436 10.0162 20.436C15.145 20.436 19.3084 16.0432 19.3084 10.6318C19.3687 5.2204 15.2053 0.827624 10.0766 0.763961V0.38198V0C15.6277 0 20.1531 4.77476 20.1531 10.6318C20.1531 16.4888 15.6277 21.2636 10.0766 21.2636C4.46506 21.2636 0 16.4888 0 10.6318Z" fill="white"></path>
  <path d="M12.6107 10.6319C17.3171 9.99522 15.869 6.3664 15.869 6.3664C15.507 5.79343 15.2053 6.04809 15.2053 6.04809C15.0846 6.11175 14.7226 6.23908 14.4812 5.98442C14.2399 5.72977 14.4209 5.41145 14.4209 5.41145C14.6622 4.83848 14.1795 4.58383 14.1795 4.58383C10.5592 2.92858 10.0765 7.95799 10.0765 7.95799C10.0765 7.95799 9.59379 2.92858 5.97347 4.58383C5.97347 4.58383 5.49076 4.83848 5.73212 5.41145C5.73212 5.41145 5.8528 5.79343 5.67178 5.98442C5.43043 6.23908 5.12873 6.11175 4.94772 6.04809C4.94772 6.04809 4.64602 5.79343 4.28399 6.3664C4.28399 6.3664 2.77553 9.93156 7.54228 10.6319C2.83586 11.2685 4.28399 14.8973 4.28399 14.8973C4.64602 15.4703 4.94772 15.2156 4.94772 15.2156C5.06839 15.152 5.43043 15.0246 5.67178 15.2793C5.91314 15.5339 5.73212 15.8523 5.73212 15.8523C5.49076 16.4252 5.97347 16.6799 5.97347 16.6799C9.59379 18.3351 10.0765 13.3057 10.0765 13.3057C10.0765 13.3057 10.5592 18.3351 14.1795 16.6799C14.1795 16.6799 14.6622 16.4252 14.4209 15.8523C14.4209 15.8523 14.3002 15.4703 14.4812 15.2793C14.7226 15.0246 15.0243 15.152 15.2053 15.2156C15.2053 15.2156 15.507 15.4703 15.869 14.8973C15.869 14.8336 17.3171 11.2685 12.6107 10.6319ZM9.11108 11.5231C8.93007 11.5231 8.74905 11.3322 8.74905 11.1412C8.74905 10.9502 8.93007 10.7592 9.11108 10.7592C9.2921 10.7592 9.47311 10.9502 9.47311 11.1412C9.47311 11.3322 9.2921 11.5231 9.11108 11.5231ZM9.17142 10.4409C8.99041 10.4409 8.80939 10.2499 8.80939 10.0589C8.80939 9.86789 8.99041 9.6769 9.17142 9.6769C9.35244 9.6769 9.53345 9.86789 9.53345 10.0589C9.53345 10.2499 9.35244 10.4409 9.17142 10.4409ZM10.0765 12.2234C9.89548 12.2234 9.71447 12.0324 9.71447 11.8415C9.71447 11.6505 9.89548 11.4595 10.0765 11.4595C10.2575 11.4595 10.4385 11.6505 10.4385 11.8415C10.4385 12.0324 10.2575 12.2234 10.0765 12.2234ZM10.0765 11.0138C9.89548 11.0138 9.71447 10.8228 9.71447 10.6319C9.71447 10.4409 9.89548 10.2499 10.0765 10.2499C10.2575 10.2499 10.4385 10.4409 10.4385 10.6319C10.4385 10.8228 10.2575 11.0138 10.0765 11.0138ZM10.0765 9.80423C9.89548 9.80423 9.71447 9.61324 9.71447 9.42225C9.71447 9.23126 9.89548 9.04027 10.0765 9.04027C10.2575 9.04027 10.4385 9.23126 10.4385 9.42225C10.4385 9.6769 10.2575 9.80423 10.0765 9.80423ZM10.9816 11.5868C10.8006 11.5868 10.6195 11.3958 10.6195 11.2048C10.6195 11.0138 10.8006 10.8228 10.9816 10.8228C11.1626 10.8228 11.3436 11.0138 11.3436 11.2048C11.3436 11.3958 11.1626 11.5868 10.9816 11.5868ZM10.9816 10.4409C10.8006 10.4409 10.6195 10.2499 10.6195 10.0589C10.6195 9.86789 10.8006 9.6769 10.9816 9.6769C11.1626 9.6769 11.3436 9.86789 11.3436 10.0589C11.3436 10.2499 11.2229 10.4409 10.9816 10.4409Z" fill="white"></path>
  <path d="M18.8859 19.7992C18.8859 20.3722 18.5239 20.7542 18.0412 20.7542C17.5585 20.7542 17.1964 20.3722 17.1964 19.7992C17.1964 19.2262 17.5585 18.8443 18.0412 18.8443C18.5239 18.8443 18.8859 19.2262 18.8859 19.7992ZM19.2479 19.7992C19.2479 19.0352 18.7049 18.5896 18.1015 18.5896C17.4981 18.5896 16.9551 19.0352 16.9551 19.7992C16.9551 20.5632 17.4981 21.0088 18.1015 21.0088C18.7049 21.0088 19.2479 20.5632 19.2479 19.7992ZM17.9205 19.8629H18.0412L18.3429 20.4358H18.6446L18.3429 19.8629C18.5239 19.8629 18.6446 19.7355 18.6446 19.5446C18.6446 19.2262 18.4635 19.1626 18.1619 19.1626H17.6188V20.4358H17.8602V19.8629H17.9205ZM17.9205 19.6719V19.3536H18.1015C18.2222 19.3536 18.3429 19.3536 18.3429 19.4809C18.3429 19.6082 18.2825 19.6719 18.1619 19.6719H17.9205Z" fill="white"></path>
  <path d="M34.6345 8.59462C34.0311 7.70333 33.0054 7.25769 31.9796 7.25769C30.1091 7.25769 28.842 8.78561 28.842 10.6955C28.842 12.6691 30.1091 14.0697 31.9796 14.0697C32.945 14.0697 33.9708 13.5604 34.5742 12.7327V16.5525C33.5484 16.8709 32.8243 17.1255 31.9193 17.1255C30.2901 17.1255 28.7213 16.4889 27.5145 15.2793C26.2474 14.0697 25.644 12.4781 25.644 10.6319C25.644 8.9766 26.2474 7.32135 27.3939 6.11175C28.5403 4.83848 30.2298 4.13818 31.8589 4.13818C32.8243 4.13818 33.7294 4.39284 34.6345 4.77482V8.59462Z" fill="white"></path>
  <path d="M37.9531 11.3958C38.1341 10.5045 38.7978 10.0588 39.6426 10.0588C40.427 10.0588 41.0907 10.5681 41.2114 11.3958H37.9531ZM43.8663 12.7964C43.8663 9.9315 42.2975 8.14893 39.5219 8.14893C36.9273 8.14893 35.1172 9.80417 35.1172 12.6054C35.1172 15.4702 37.1084 17.0618 39.7029 17.0618C41.5131 17.0618 43.3232 16.1705 43.7456 14.197H41.0304C40.7287 14.7699 40.3063 14.9609 39.7029 14.9609C38.5565 14.9609 37.9531 14.3243 37.9531 13.1147H43.8663V12.7964Z" fill="white"></path>
  <path d="M47.1848 9.48586C47.8485 8.46724 48.6329 8.14893 49.7793 8.14893C51.8912 8.14893 52.7963 9.54952 52.7963 11.6504V16.8072H49.9603V12.7327C49.9603 11.9051 50.081 10.5045 48.6932 10.5045C47.5468 10.5045 47.2451 11.3958 47.2451 12.478V16.8072H44.4092V8.40358H47.1848V9.48586Z" fill="white"></path>
  <path d="M56.8994 16.807H54.0635V10.8863H53.2188V8.40347H54.1238V5.85693H56.9597V8.40347H58.5286V10.8863H56.9597V16.807H56.8994Z" fill="white"></path>
  <path d="M61.6057 9.8041C62.1487 8.78549 63.1142 8.33984 64.2003 8.33984H64.7433V11.2047C64.3813 10.95 63.9589 10.95 63.5365 10.95C61.9677 10.95 61.6057 12.0323 61.6057 13.4966V16.8707H58.7698V8.40351H61.6057V9.8041Z" fill="white"></path>
  <path d="M69.2084 10.7591C70.3548 10.7591 71.0186 11.6504 71.0186 12.669C71.0186 13.7513 70.3548 14.5789 69.2084 14.5789C68.062 14.5789 67.3982 13.7513 67.3982 12.669C67.3982 11.5868 68.062 10.7591 69.2084 10.7591ZM73.7338 8.40358H70.8979V9.2312C70.2945 8.46724 69.3291 8.14893 68.424 8.14893C66.0708 8.14893 64.4417 10.1862 64.4417 12.6054C64.4417 15.0246 66.1311 17.0618 68.4843 17.0618C69.3894 17.0618 70.4152 16.6798 70.8979 15.8522H70.9582V16.8072H73.7941V8.40358H73.7338Z" fill="white"></path>
  <path d="M77.6557 16.8071H74.8198V3.24683H77.6557V16.8071Z" fill="white"></path>
  <path d="M86.4049 11.7139H86.7066C87.672 11.7139 89.1804 11.5866 89.1804 13.0509C89.1804 14.3878 87.672 14.3878 86.7669 14.3878H86.4049V11.7139ZM88.034 16.807C90.1459 16.807 92.2577 15.9794 92.2577 13.3692C92.2577 11.6503 91.5336 10.4407 89.8442 10.2497V10.186C90.8096 9.6767 91.1113 8.78541 91.1113 7.63947C91.1113 5.28392 89.7235 4.4563 87.6116 4.4563H83.3879V16.807H88.034ZM86.4049 6.93917H86.6462C87.491 6.93917 88.396 7.00284 88.396 8.14878C88.396 9.16739 87.5513 9.35838 86.7669 9.35838H86.4049V6.93917Z" fill="white"></path>
  <path d="M97.5072 10.7591C98.6537 10.7591 99.3174 11.6504 99.3174 12.669C99.3174 13.7513 98.6537 14.5789 97.5072 14.5789C96.3608 14.5789 95.6971 13.7513 95.6971 12.669C95.6971 11.5868 96.3608 10.7591 97.5072 10.7591ZM102.033 8.40358H99.1967V9.2312C98.5933 8.46724 97.6279 8.14893 96.7228 8.14893C94.3696 8.14893 92.7405 10.1862 92.7405 12.6054C92.7405 15.0246 94.43 17.0618 96.7832 17.0618C97.6882 17.0618 98.714 16.6798 99.1967 15.8522H99.2571V16.8072H102.093V8.40358H102.033Z" fill="white"></path>
  <path d="M105.955 9.48586C106.618 8.46724 107.403 8.14893 108.549 8.14893C110.661 8.14893 111.566 9.54952 111.566 11.6504V16.8072H108.73V12.7327C108.73 11.9051 108.851 10.5045 107.463 10.5045C106.317 10.5045 106.015 11.3958 106.015 12.478V16.8072H103.179V8.40358H106.015V9.48586H105.955Z" fill="white"></path>
  <path d="M115.428 11.4594L118.384 8.40356H122.246L118.264 12.287L122.487 16.8071H118.505L115.428 13.3693V16.8071H112.592V3.24683H115.428V11.4594Z" fill="white"></path>
</svg>