<svg width="127" height="26" viewBox="0 0 127 26" fill="none" xmlns="http://www.w3.org/2000/svg">
  <g opacity="0.9">
    <path d="M64.61 16.8551L63.0276 10.2789H65.009L65.399 12.713C65.52 13.4751 65.6455 14.3537 65.7576 15.0261C65.8607 14.2865 66.0041 13.493 66.1566 12.6951L66.6048 10.2744H68.5772L69.0255 12.8117C69.1465 13.5603 69.2407 14.2372 69.3303 14.9768C69.429 14.2461 69.5545 13.4661 69.6755 12.6951L70.0834 10.2744H71.9528L70.2583 16.8506H68.2679L67.8196 14.273C67.7165 13.6992 67.6224 13.0851 67.5328 12.3051C67.4207 13.0851 67.3265 13.6992 67.2055 14.2865L66.6855 16.8506L64.61 16.8551Z" fill="white"></path>
    <path d="M74.0462 15.3355L73.6562 16.8597H71.7466L73.7504 10.2834H76.2024L78.2555 16.8597H76.2652L75.8169 15.3355H74.0462ZM75.5659 14.0266L75.2611 12.8476C75.158 12.4755 75.0235 11.951 74.9249 11.5476C74.8217 11.9376 74.7186 12.4845 74.62 12.8521L74.3242 14.0266H75.5659Z" fill="white"></path>
    <path d="M79.1296 10.3685C79.8724 10.2684 80.6215 10.2219 81.371 10.2296C82.4245 10.2296 83.1641 10.3685 83.6976 10.7406C83.9217 10.9039 84.1015 11.1207 84.2205 11.3713C84.3395 11.6218 84.394 11.8981 84.3789 12.1751C84.3642 12.5285 84.2435 12.8693 84.0324 13.1531C83.8213 13.437 83.5297 13.6507 83.1955 13.7665V13.8023C83.4259 13.9149 83.627 14.0797 83.7826 14.2836C83.9382 14.4875 84.0442 14.7248 84.092 14.9768C84.3072 15.6492 84.5403 16.6041 84.6658 16.8596H82.7472C82.5407 16.372 82.3801 15.8663 82.2676 15.3489C82.0838 14.5554 81.8193 14.3896 81.2545 14.3896H80.9586V16.8596H79.1296V10.3685ZM80.9586 13.1299H81.4382C82.1286 13.1299 82.532 12.7982 82.532 12.3096C82.532 11.821 82.1914 11.5385 81.5817 11.5251C81.3732 11.5194 81.1646 11.5329 80.9586 11.5654V13.1299Z" fill="white"></path>
    <path d="M89.7582 14.2015H87.2838V15.4118H90.0541V16.8553H85.4324V10.2791H89.9107V11.7135H87.2838V12.7759H89.7582V14.2015Z" fill="white"></path>
    <path d="M92.9231 10.2791V12.7087H95.16V10.2791H97.0025V16.8553H95.16V14.2508H92.9231V16.8553H91.0718V10.2791H92.9231Z" fill="white"></path>
    <path d="M104.753 13.4975C104.753 15.6133 103.408 16.9626 101.301 16.9626C99.1945 16.9626 97.9886 15.4295 97.9886 13.6095C97.9683 13.154 98.043 12.6992 98.2078 12.274C98.3726 11.8488 98.624 11.4625 98.946 11.1396C99.2681 10.8167 99.6537 10.5643 100.078 10.3984C100.503 10.2325 100.958 10.1566 101.413 10.1757C103.628 10.1757 104.753 11.7447 104.753 13.5019V13.4975ZM99.9431 13.5826C99.9431 14.8109 100.503 15.573 101.395 15.573C102.288 15.573 102.803 14.7437 102.803 13.5602C102.803 12.3768 102.274 11.5699 101.382 11.5699C100.49 11.5699 99.9431 12.3723 99.9431 13.5826Z" fill="white"></path>
    <path d="M107.573 10.2789V14.0041C107.573 14.9992 107.931 15.5686 108.658 15.5686C109.384 15.5686 109.751 15.053 109.751 14.0041V10.2789H111.598V13.9099C111.598 15.9361 110.536 16.9627 108.604 16.9627C106.672 16.9627 105.744 15.9765 105.744 13.8606V10.2744L107.573 10.2789Z" fill="white"></path>
    <path d="M112.979 15.0978C113.541 15.3584 114.152 15.4974 114.772 15.5058C115.4 15.5058 115.709 15.2996 115.709 14.9723C115.709 14.6451 115.4 14.4658 114.624 14.2103C113.459 13.8158 112.692 13.2061 112.692 12.2289C112.692 11.0678 113.714 10.1668 115.454 10.1668C116.094 10.1503 116.731 10.2679 117.323 10.512L116.951 11.9151C116.478 11.7106 115.969 11.6053 115.454 11.6058C114.889 11.6058 114.584 11.7985 114.584 12.0899C114.584 12.3813 114.952 12.5382 115.821 12.8744C117.058 13.3227 117.614 13.9413 117.614 14.8513C117.614 15.9854 116.686 16.9627 114.674 16.9627C113.978 16.9677 113.29 16.8272 112.652 16.5503L112.979 15.0978Z" fill="white"></path>
    <path d="M122.908 14.2015H120.434V15.4118H123.204V16.8553H118.587V10.2791H123.065V11.7135H120.434V12.7759H122.908V14.2015Z" fill="white"></path>
    <path d="M39.7216 10.2207C39.8719 10.4084 39.9499 10.6438 39.9413 10.8841C39.9413 11.1755 39.7978 11.4938 39.623 11.4938C39.5824 11.4925 39.5427 11.4812 39.5075 11.4608C39.4723 11.4405 39.4427 11.4118 39.4213 11.3772C39.2626 11.1269 39.0489 10.916 38.7964 10.7607C38.544 10.6053 38.2594 10.5095 37.9644 10.4807C36.9423 10.4807 35.9516 11.3772 35.9516 13.1389C35.9516 14.43 36.7406 15.9631 38.3006 15.9631C38.6372 15.9718 38.9691 15.8829 39.2563 15.7071C39.5434 15.5313 39.7736 15.2761 39.9189 14.9724C40.0354 14.9365 40.1699 15.0531 40.1789 15.201C40.0091 15.6154 39.7385 15.9808 39.3917 16.2641C39.0449 16.5473 38.6328 16.7396 38.1929 16.8233C37.753 16.907 37.2991 16.8795 36.8725 16.7434C36.4459 16.6073 36.06 16.3668 35.7499 16.0438C35.1743 15.367 34.8764 14.4972 34.9161 13.6096C34.9161 11.8165 36.0234 9.9248 38.4441 9.9248C38.8891 9.93054 39.3283 10.0266 39.7351 10.2072" fill="white"></path>
    <path d="M41.4835 7.36067C41.4835 6.38791 41.4835 6.28481 41.0353 5.98894L40.8918 5.89032C40.8547 5.84299 40.8346 5.78459 40.8346 5.72446C40.8346 5.66433 40.8547 5.60594 40.8918 5.5586C41.4355 5.37326 41.962 5.14076 42.4653 4.86377C42.4964 4.8636 42.5268 4.87296 42.5525 4.89059C42.5781 4.90822 42.5977 4.93328 42.6087 4.96239C42.6087 5.45998 42.5639 6.28481 42.5639 7.01101V10.4717C42.5502 10.5798 42.5706 10.6895 42.6222 10.7855C43.1554 10.275 43.8531 9.97146 44.5901 9.92929C45.9708 9.92929 46.4729 10.902 46.4729 12.0586V14.82C46.4729 16.0079 46.4998 16.1872 47.0287 16.2589L47.4232 16.3038C47.4672 16.3658 47.4885 16.4411 47.4836 16.517C47.4787 16.5929 47.4479 16.6648 47.3963 16.7207C46.8718 16.6893 46.446 16.6714 45.9394 16.6714C45.4329 16.6714 44.9756 16.6714 44.5946 16.7207C44.5406 16.6661 44.5081 16.5939 44.5032 16.5173C44.4982 16.4406 44.5211 16.3648 44.5677 16.3038L44.8591 16.2589C45.397 16.1558 45.4149 16.0079 45.4149 14.82V12.4665C45.4149 11.4131 44.9667 10.7003 44.0298 10.7003C43.6062 10.695 43.1974 10.8559 42.8911 11.1486C42.6266 11.3952 42.5863 11.4758 42.5863 12.0452V14.82C42.5863 16.0079 42.6177 16.1648 43.1422 16.2589L43.447 16.3038C43.4912 16.366 43.5123 16.4418 43.5066 16.5179C43.5008 16.594 43.4687 16.6658 43.4156 16.7207C42.9673 16.6893 42.5549 16.6714 42.0439 16.6714C41.5329 16.6714 41.0846 16.6714 40.6184 16.7207C40.5645 16.6662 40.5318 16.5944 40.5261 16.518C40.5203 16.4416 40.5419 16.3657 40.587 16.3038L40.9501 16.2589C41.4925 16.1872 41.506 16.0079 41.506 14.82V7.36067H41.4835Z" fill="white"></path>
    <path d="M49.5973 12.4487C49.2208 12.4487 49.2073 12.4845 49.2073 12.8969C49.2073 14.5645 50.068 15.9856 51.6235 15.9856C51.8999 15.986 52.1711 15.9112 52.4081 15.769C52.6451 15.6268 52.8388 15.4227 52.9684 15.1787C53.1118 15.1249 53.2149 15.228 53.2284 15.3759C53.0509 15.7913 52.7654 16.1515 52.4016 16.4192C52.0378 16.6869 51.6089 16.8522 51.1595 16.8979C50.7101 16.9437 50.2567 16.8682 49.8464 16.6794C49.4361 16.4906 49.0838 16.1953 48.8263 15.8242C48.4137 15.1849 48.2 14.4377 48.2122 13.6769C48.2122 11.6463 49.3911 9.94728 51.1394 9.94728C51.4044 9.93893 51.6685 9.98325 51.9162 10.0777C52.164 10.1721 52.3905 10.3148 52.5827 10.4974C52.775 10.68 52.929 10.899 53.036 11.1416C53.143 11.3842 53.2008 11.6456 53.206 11.9107C53.2141 12.0548 53.1959 12.1991 53.1522 12.3366C53.1073 12.4352 52.9011 12.4531 52.287 12.4531L49.5973 12.4487ZM50.4939 11.9511C51.5742 11.9511 51.8925 11.8883 52.0091 11.7852C52.0539 11.7538 52.0987 11.6866 52.0987 11.4714C52.1034 11.3266 52.0769 11.1824 52.0211 11.0487C51.9653 10.9149 51.8815 10.7947 51.7753 10.6961C51.6691 10.5976 51.5429 10.5229 51.4054 10.4773C51.2678 10.4316 51.1221 10.416 50.978 10.4314C50.5889 10.4618 50.2204 10.6184 49.9283 10.8773C49.6362 11.1361 49.4366 11.4833 49.3597 11.8659C49.3597 11.8973 49.3597 11.9466 49.4628 11.9466H50.4939V11.9511Z" fill="white"></path>
    <path d="M56.1869 10.8661C55.9359 10.8661 55.9359 10.8975 55.9359 11.3413V14.8289C55.9359 16.0168 55.9672 16.214 56.4917 16.2678L57.0162 16.3126C57.0619 16.374 57.0842 16.4497 57.0793 16.526C57.0744 16.6024 57.0425 16.6745 56.9893 16.7295C56.3348 16.6982 55.9134 16.6802 55.4024 16.6802C54.8914 16.6802 54.4386 16.6802 53.9993 16.7295C53.9453 16.675 53.9128 16.6027 53.9079 16.5261C53.9029 16.4495 53.9259 16.3737 53.9724 16.3126L54.3086 16.2678C54.851 16.1826 54.8645 16.0168 54.8645 14.8289V11.3413C54.8645 10.893 54.8645 10.8661 54.5731 10.8661H54.0666C54.0241 10.8269 53.9965 10.7743 53.9883 10.7172C53.9802 10.66 53.992 10.6018 54.0217 10.5523L54.6403 10.2026C54.7042 10.1746 54.7588 10.1289 54.7977 10.071C54.8366 10.013 54.8582 9.94518 54.86 9.87541C54.8352 8.88669 54.987 7.90149 55.3083 6.9661C55.6714 6.0292 56.4872 4.86816 57.9307 4.86816C58.7017 4.86816 59.3562 5.26265 59.3562 5.85885C59.3533 6.00599 59.2956 6.14676 59.1945 6.25368C59.0934 6.36061 58.9561 6.42601 58.8093 6.43713C58.7386 6.43904 58.6687 6.4217 58.6072 6.38695C58.5456 6.35221 58.4946 6.30138 58.4597 6.23989C58.3319 6.0395 58.1609 5.87026 57.9593 5.7446C57.7576 5.61893 57.5303 5.54003 57.2941 5.51368C56.8459 5.51368 56.4783 5.82747 56.2586 6.41023C56.0172 7.31925 55.9085 8.25839 55.9359 9.19851V9.67816C55.9359 10.1264 55.9359 10.1264 56.1869 10.1264H57.85C57.9138 10.2369 57.9383 10.3657 57.9196 10.4918C57.9009 10.618 57.84 10.7341 57.7469 10.8213H56.1869V10.8661Z" fill="white"></path>
    <path d="M61.6918 10.2386C61.8424 10.6711 61.9212 11.1254 61.9249 11.5834C61.9068 11.6116 61.8828 11.6355 61.8546 11.6536C61.8263 11.6717 61.7946 11.6835 61.7614 11.6882C61.7282 11.6928 61.6944 11.6903 61.6623 11.6807C61.6301 11.6712 61.6005 11.6548 61.5752 11.6327C61.3287 10.9065 60.8939 10.4268 60.2932 10.4268C60.1624 10.4206 60.0318 10.443 59.9107 10.4926C59.7895 10.5421 59.6807 10.6176 59.5918 10.7138C59.5029 10.8099 59.4362 10.9243 59.3963 11.049C59.3564 11.1737 59.3442 11.3056 59.3607 11.4355C59.3607 12.1124 59.9749 12.4755 60.4814 12.8072C61.2525 13.3048 61.9697 13.8651 61.9697 15.0486C61.9697 16.3037 60.9477 16.9313 59.8673 16.9313C59.3049 16.9714 58.7484 16.795 58.3118 16.4382C58.1678 15.8947 58.1088 15.3322 58.137 14.7706C58.1584 14.7474 58.1844 14.7289 58.2133 14.7162C58.2422 14.7035 58.2735 14.697 58.3051 14.697C58.3366 14.697 58.3679 14.7035 58.3968 14.7162C58.4258 14.7289 58.4518 14.7474 58.4732 14.7706C58.7197 15.6672 59.1904 16.4741 60.0197 16.4741C60.1558 16.4774 60.291 16.4517 60.4163 16.3985C60.5415 16.3453 60.654 16.266 60.7461 16.1658C60.8382 16.0656 60.9079 15.9469 60.9504 15.8176C60.9929 15.6883 61.0072 15.5514 60.9925 15.4161C60.9925 14.6586 60.4097 14.2417 59.8718 13.8965C59.029 13.3541 58.4283 12.7758 58.4283 11.8658C58.4283 10.6599 59.3249 9.98305 60.4142 9.98305C60.8602 9.95013 61.3057 10.0533 61.6918 10.2789" fill="white"></path>
    <path d="M30.1645 9.34208L29.6579 11.0366C29.6221 11.1576 29.6579 11.1979 29.6983 11.1979C29.9517 11.0509 30.1728 10.8542 30.3483 10.6197C30.4021 10.6197 30.4379 10.6555 30.429 10.7362C30.1995 11.1747 29.8091 11.5073 29.3397 11.6641C29.2984 11.6562 29.261 11.6347 29.2333 11.603C29.2057 11.5713 29.1895 11.5313 29.1873 11.4893C29.1968 11.3636 29.224 11.2399 29.2679 11.1217L29.8014 9.32863H29.3531C29.344 9.29591 29.3451 9.26117 29.3563 9.2291C29.3675 9.19703 29.3883 9.16918 29.4159 9.14932L29.8642 9.05967L30.1824 8.42311C30.2171 8.40256 30.258 8.39532 30.2976 8.40274C30.3372 8.41017 30.3727 8.43175 30.3976 8.46346L30.2407 9.12691H30.8817C30.8984 9.16836 30.9009 9.21419 30.8887 9.25719C30.8765 9.30019 30.8504 9.33793 30.8145 9.36449H30.1645V9.34208Z" fill="white"></path>
    <path d="M32.3968 7.00663C32.2803 7.36077 32.101 7.9525 31.9844 8.3156L31.4017 10.2387C31.6368 9.83536 31.9401 9.47589 32.2982 9.17629C32.4462 9.0348 32.637 8.94649 32.8406 8.92525C33.0872 8.92525 33.1813 9.13146 33.1813 9.37353C33.1296 9.89965 32.9774 10.411 32.733 10.8797C32.6359 11.0735 32.5105 11.2517 32.361 11.4087C32.313 11.4764 32.2516 11.5336 32.1807 11.5768C32.1098 11.62 32.0308 11.6482 31.9486 11.6597C31.922 11.6629 31.8951 11.6604 31.8696 11.6524C31.8441 11.6444 31.8206 11.631 31.8007 11.6132C31.7808 11.5954 31.7649 11.5735 31.754 11.5491C31.7432 11.5247 31.7377 11.4982 31.7379 11.4715C31.7379 11.3639 31.8141 11.2653 31.8903 11.2653C31.9199 11.2685 31.9472 11.2829 31.9665 11.3056C32.0158 11.3415 32.0786 11.3908 32.1144 11.3908C32.1503 11.3908 32.2579 11.2922 32.343 11.068C32.5436 10.5328 32.682 9.97623 32.7555 9.40939C32.7555 9.28836 32.7106 9.21663 32.6344 9.21663C32.5174 9.24243 32.411 9.30344 32.3296 9.39146C32.049 9.64062 31.806 9.929 31.6079 10.2477C31.3484 10.6795 31.1192 11.1289 30.922 11.5925C30.922 11.6463 30.8727 11.6732 30.8189 11.6732C30.7651 11.6732 30.6037 11.6732 30.653 11.5028L31.7334 7.88525C31.8589 7.45939 31.8858 7.37422 31.7962 7.3025L31.6751 7.21284C31.6666 7.20026 31.6621 7.18543 31.6621 7.17025C31.6621 7.15508 31.6666 7.14025 31.6751 7.12767C31.8909 7.05143 32.1152 7.00175 32.343 6.97974L32.3968 7.00663Z" fill="white"></path>
    <path d="M35.3153 9.32872C35.3153 9.81734 34.7549 10.1401 33.9346 10.3956C33.8789 10.5816 33.8532 10.7753 33.8584 10.9694C33.8584 11.1846 33.9749 11.337 34.1273 11.337C34.2797 11.337 34.477 11.207 34.7235 10.9649C34.7361 10.9656 34.7483 10.9692 34.7592 10.9754C34.7701 10.9816 34.7794 10.9903 34.7864 11.0007C34.7933 11.0112 34.7978 11.0231 34.7993 11.0356C34.8009 11.048 34.7995 11.0607 34.7953 11.0725C34.7055 11.2365 34.5768 11.3758 34.4204 11.4782C34.264 11.5806 34.0849 11.643 33.8987 11.6598C33.558 11.6598 33.4504 11.2967 33.4504 10.9829C33.4937 10.3157 33.7981 9.69237 34.2977 9.24803C34.4773 9.06213 34.7209 8.95154 34.9791 8.93872C35.0781 8.94448 35.1712 8.98824 35.2388 9.06089C35.3065 9.13354 35.3435 9.22947 35.3422 9.32872H35.3153ZM34.4456 9.44975C34.2655 9.67647 34.1232 9.93078 34.0242 10.2029C34.3173 10.118 34.5811 9.9535 34.7863 9.72769C34.9092 9.60823 34.9869 9.44978 35.0059 9.27941C35.0059 9.21217 34.9791 9.127 34.876 9.127C34.7728 9.127 34.6518 9.18976 34.4277 9.44079" fill="white"></path>
    <path d="M13.2556 22.4944C11.5897 22.494 9.95713 22.0272 8.5429 21.1467C7.12866 20.2662 5.98923 19.0073 5.25365 17.5126C4.51808 16.0179 4.21575 14.347 4.38091 12.6893C4.54607 11.0316 5.17212 9.45326 6.18816 8.13305C7.2042 6.81283 8.56962 5.80351 10.1298 5.21938C11.6899 4.63526 13.3825 4.49967 15.0157 4.82799C16.649 5.15631 18.1577 5.93541 19.3709 7.07704C20.5841 8.21868 21.4535 9.67724 21.8804 11.2875H25.9149C25.439 8.08603 23.7698 5.18301 21.2424 3.16112C18.715 1.13923 15.5163 0.14812 12.2885 0.386709C9.06061 0.625298 6.04244 2.07593 3.83974 4.44745C1.63705 6.81897 0.412842 9.93586 0.412842 13.1725C0.412842 16.4092 1.63705 19.5261 3.83974 21.8976C6.04244 24.2691 9.06061 25.7197 12.2885 25.9583C15.5163 26.1969 18.715 25.2058 21.2424 23.1839C23.7698 21.162 25.439 18.259 25.9149 15.0575H22.0508C21.6984 17.1358 20.6221 19.0224 19.0125 20.3835C17.4028 21.7446 15.3635 22.4923 13.2556 22.4944Z" fill="white"></path>
    <path d="M6.7915 9.98315H8.7953L10.3687 15.488L12.2829 9.98315H13.9818L15.9498 15.488L17.5187 9.98315H19.5225L17.066 18.5945H15.116L13.1212 13.0225L11.1801 18.5945H9.25254L6.7915 9.98315Z" fill="white"></path>
  </g>
</svg>