<svg width="116" height="25" viewBox="0 0 116 25" fill="none" xmlns="http://www.w3.org/2000/svg">
  <g opacity="0.8" clip-path="url(#clip0_1701_1116)">
    <path d="M5.96434 21.1666C7.80384 21.1666 9.25314 19.6666 9.25314 17.8888V6.77772C9.25314 6.77772 9.25314 6.72217 9.1974 6.72217H7.24642C7.24642 6.72217 7.19067 6.72217 7.19067 6.77772V17.8888C7.19067 18.5555 6.63325 19.1111 5.96434 19.1111C5.29543 19.1111 4.73801 18.5555 4.73801 17.8888V16.3333C4.73801 16.3333 4.73801 16.2777 4.68226 16.2777H2.73128C2.73128 16.2777 2.67554 16.2777 2.67554 16.3333V17.8888C2.67554 19.6666 4.18058 21.1666 5.96434 21.1666Z" fill="white"></path>
    <path d="M22.4084 15.8332H21.2378C20.4017 15.8332 19.5655 15.5555 18.8966 15.0555C17.1686 13.7777 16.7784 11.3332 18.0605 9.61103L18.5064 9.05547C19.5655 7.61103 19.2868 5.55547 17.8375 4.44436C16.3882 3.38881 14.3258 3.66658 13.2109 5.11103C12.8207 5.66658 12.542 6.38881 12.542 7.05547V17.8332C12.542 17.8332 12.542 17.8888 12.5977 17.8888H14.6045C14.6045 17.8888 14.6602 17.8888 14.6602 17.8332V7.11103C14.6602 6.83325 14.7717 6.61103 14.8832 6.38881C15.0504 6.11103 15.3849 5.94436 15.6636 5.88881C15.998 5.83325 16.3325 5.94436 16.5554 6.11103C17.1129 6.49992 17.2244 7.27769 16.8342 7.83325L16.3882 8.38881C15.4406 9.66658 15.0504 11.2221 15.2734 12.8332C15.4963 14.3888 16.3325 15.7777 17.6146 16.7221C18.6179 17.4999 19.9 17.8888 21.1821 17.8888H22.3527C22.3527 17.8888 22.4084 17.8888 22.4084 17.8332V15.8332Z" fill="white"></path>
    <path d="M22.4085 13.1666H21.2379C20.9592 13.1666 20.7362 13.0555 20.5132 12.9444C20.2345 12.7777 20.0673 12.4444 20.0115 12.1666C19.9558 11.8333 20.0673 11.5 20.2345 11.2777L20.6804 10.7222C21.6281 9.44441 22.0183 7.88885 21.7953 6.27774C21.5723 4.72219 20.7362 3.3333 19.4541 2.38885C18.172 1.44441 16.6112 1.05552 14.9947 1.27774C13.4339 1.49996 12.0404 2.3333 11.0927 3.61107C10.3123 4.61107 9.92215 5.88885 9.92215 7.16663V17.9444C9.92215 20.1111 8.19414 21.8333 6.02018 21.8333C3.84623 21.8333 2.11821 20.1111 2.11821 17.9444V16.3333H0V17.9444C0 21.2222 2.67564 23.8889 5.96444 23.8889C9.25324 23.8889 11.9289 21.2222 11.9289 17.9444V7.11107C11.9289 6.27774 12.2076 5.44441 12.7093 4.77774C13.9913 3.05552 16.444 2.66663 18.172 3.94441C19.9 5.22219 20.2902 7.66663 19.0082 9.38885L18.5622 9.94441C18.0605 10.6666 17.8376 11.5 17.9491 12.3889C18.0605 13.2777 18.5622 14 19.2311 14.5555C19.7886 14.9444 20.5132 15.2222 21.1821 15.2222H22.3527C22.3527 15.2222 22.4085 15.2222 22.4085 15.1666V13.1666Z" fill="white"></path>
    <path d="M28.7632 0H28.4287V25H28.7632V0Z" fill="white"></path>
    <path d="M39.2427 15.0557C39.2427 16.3334 38.518 16.9446 36.9572 16.9446C35.3965 16.9446 34.7275 16.3334 34.7275 15.0557V14.0557C34.7275 13.7779 34.8948 13.6112 35.1735 13.6112H35.8981C36.1768 13.6112 36.3441 13.7779 36.3441 14.0557V15.0557C36.3441 15.5001 36.5113 15.7779 37.013 15.7779C37.5147 15.7779 37.7376 15.5001 37.7376 15.0557V8.44455C37.7376 8.16678 37.9049 8.05566 38.1836 8.05566H38.9082C39.1869 8.05566 39.3542 8.22233 39.3542 8.44455V15.0557H39.2427Z" fill="white"></path>
    <path fill-rule="evenodd" clip-rule="evenodd" d="M46.0989 16.3333L44.8726 13.1111C45.5973 12.8333 45.876 12.2222 45.8202 11.3333V9.94444C45.8202 8.61111 45.0956 8 43.5348 8H41.8068C41.5281 8 41.3608 8.16667 41.3608 8.44444V16.4444C41.3608 16.7222 41.5281 16.8889 41.8068 16.8889H42.5314C42.8101 16.8889 42.9774 16.7222 42.9774 16.4444V13.3333H43.3676L44.5382 16.6667C44.6496 16.8333 44.7611 16.9444 44.9841 16.9444H45.7088C46.099 16.9444 46.2104 16.5556 46.0989 16.3333ZM44.3153 11.3333C44.3153 11.7777 44.148 12.1111 43.5906 12.1111V12.1666H42.9775V9.27774H43.5906C44.0923 9.27774 44.3153 9.55551 44.3153 9.99996V11.3333Z" fill="white"></path>
    <path fill-rule="evenodd" clip-rule="evenodd" d="M53.4013 15.1112L53.5685 16.5001C53.6243 16.7779 53.7915 16.889 54.0702 16.889H54.7391C55.0178 16.889 55.185 16.7223 55.1293 16.389L53.903 8.44455C53.8472 8.16678 53.68 8.05566 53.457 8.05566H51.8405C51.6175 8.05566 51.4503 8.16678 51.3946 8.44455L50.1682 16.389C50.1125 16.6668 50.224 16.889 50.5584 16.889H51.2273C51.4503 16.889 51.6175 16.7779 51.6733 16.5001L51.8405 15.1112H53.4013ZM53.2341 13.9446H52.0078L52.2308 12.0557L52.5652 9.11123H52.6767L53.0112 12.0557L53.2341 13.9446Z" fill="white"></path>
    <path d="M56.9688 8.44444C56.9688 8.16667 57.136 8 57.4147 8H58.1393C58.4181 8 58.5853 8.16667 58.5853 8.44444V15.0556C58.5853 15.4444 58.7525 15.7778 59.2542 15.7778C59.7559 15.7778 59.9788 15.5 59.9788 15.0556V8.44444C59.9788 8.16667 60.1461 8 60.4248 8H61.1494C61.4281 8 61.5954 8.16667 61.5954 8.44444V15.0556C61.5954 16.3333 60.8707 16.9444 59.3099 16.9444C57.7491 16.9444 57.0802 16.3333 57.0802 15.0556V8.44444H56.9688Z" fill="white"></path>
    <path d="M66.5564 9.22222V16.4444C66.5564 16.7222 66.3892 16.8889 66.1104 16.8889H65.3858C65.1071 16.8889 64.9399 16.7222 64.9399 16.4444V9.22222H63.7135C63.4348 9.22222 63.2676 9.05556 63.2676 8.77778V8.44444C63.2676 8.16667 63.4348 8 63.7135 8H67.7827C68.0614 8 68.2287 8.16667 68.2287 8.44444V8.77778C68.2287 9.05556 68.0614 9.22222 67.7827 9.22222H66.5564Z" fill="white"></path>
    <path fill-rule="evenodd" clip-rule="evenodd" d="M74.5833 15.1111V9.88893C74.5833 8.61115 73.8586 7.94448 72.2978 8.00004C70.7928 8.00004 70.0681 8.61115 70.0681 9.88893V15.1111C70.0681 16.3889 70.737 17 72.2978 17C73.8586 17 74.5833 16.3889 74.5833 15.1111ZM71.6289 15.1112V9.88896C71.6289 9.44451 71.7962 9.16673 72.2978 9.16673C72.7995 9.16673 73.0225 9.44451 73.0225 9.88896V15.1112C73.0225 15.5556 72.7995 15.8334 72.2978 15.8334C71.7962 15.8334 71.6289 15.5556 71.6289 15.1112Z" fill="white"></path>
    <path d="M79.2099 15.2222C78.9312 15.2222 78.8197 15.1111 78.764 14.8889L78.0393 10.5H77.9278L78.0393 12.2222V16.4444C78.0393 16.7222 77.8721 16.8889 77.5934 16.8889H77.0917C76.813 16.8889 76.6458 16.7222 76.6458 16.4444V8.44444C76.6458 8.16667 76.813 8 77.0917 8H78.318C78.5967 8 78.7082 8.11111 78.764 8.38889L79.2656 11L79.5444 13.1111H79.6558L79.9346 11L80.4362 8.38889C80.492 8.11111 80.6035 8 80.8822 8H82.1085C82.3872 8 82.5545 8.16667 82.5545 8.44444V16.5C82.5545 16.7778 82.3872 16.9444 82.1085 16.9444H81.6068C81.3281 16.9444 81.1609 16.7778 81.1609 16.5V12.2222L81.2724 10.5H81.1609L80.4362 14.8889C80.4362 15.1111 80.269 15.2222 79.9903 15.2222H79.2099Z" fill="white"></path>
    <path fill-rule="evenodd" clip-rule="evenodd" d="M87.7387 15.1112L87.9059 16.5001C87.9617 16.7779 88.1289 16.889 88.4076 16.889H89.0765C89.3552 16.889 89.5224 16.7223 89.4667 16.389L88.2404 8.44455C88.1846 8.16678 88.0174 8.05566 87.7944 8.05566H86.1779C85.9549 8.05566 85.7877 8.16678 85.732 8.44455L84.5056 16.389C84.4499 16.6668 84.5614 16.889 84.8958 16.889H85.5647C85.7877 16.889 85.9549 16.7779 86.0107 16.5001L86.1779 15.1112H87.7387ZM87.5714 13.9446H86.3451L86.5681 12.0557L86.9025 9.11123H87.014L87.3484 12.0557L87.5714 13.9446Z" fill="white"></path>
    <path d="M93.7588 9.22222V16.4444C93.7588 16.7222 93.5915 16.8889 93.3128 16.8889H92.5882C92.3095 16.8889 92.1422 16.7222 92.1422 16.4444V9.22222H90.9159C90.6372 9.22222 90.47 9.05556 90.47 8.77778V8.44444C90.47 8.16667 90.6372 8 90.9159 8H94.9851C95.2638 8 95.431 8.16667 95.431 8.44444V8.77778C95.431 9.05556 95.2638 9.22222 94.9851 9.22222H93.7588Z" fill="white"></path>
    <path d="M98.887 16.4446C98.887 16.7223 98.7198 16.889 98.4411 16.889H97.7164C97.4377 16.889 97.2705 16.7223 97.2705 16.4446V8.44455C97.2705 8.16678 97.4377 8.05566 97.7164 8.05566H98.4411C98.7198 8.05566 98.887 8.22233 98.887 8.44455V16.4446Z" fill="white"></path>
    <path fill-rule="evenodd" clip-rule="evenodd" d="M105.521 15.1111V9.88893C105.521 8.61115 104.796 7.94448 103.235 8.00004C101.73 8.00004 101.005 8.61115 101.005 9.88893V15.1111C101.005 16.3889 101.674 17 103.235 17C104.796 17 105.521 16.3889 105.521 15.1111ZM102.566 15.1112V9.88896C102.566 9.44451 102.733 9.16673 103.235 9.16673C103.737 9.16673 103.96 9.44451 103.96 9.88896V15.1112C103.96 15.5556 103.737 15.8334 103.235 15.8334C102.733 15.8334 102.566 15.5556 102.566 15.1112Z" fill="white"></path>
    <path d="M110.76 8.44444C110.76 8.16667 110.928 8 111.206 8H111.819C112.098 8 112.21 8.16667 112.21 8.44444V16.5C112.21 16.7778 112.042 16.9444 111.819 16.9444H111.039C110.76 16.9444 110.705 16.8333 110.593 16.6111L109.59 13.3333L109.032 11.3333H108.921L109.088 13.4444V16.5556C109.088 16.8333 108.921 17 108.642 17H108.029C107.75 17 107.583 16.8333 107.583 16.5556V8.44444C107.583 8.16667 107.75 8 108.029 8H108.809C109.088 8 109.2 8.11111 109.255 8.33333L110.259 11.6111L110.816 13.6111H110.928L110.76 11.5V8.44444Z" fill="white"></path>
    <path d="M115.833 8.22222L115.443 9.22222H115.387L114.997 8.22222V9.22222H114.829V8H115.052L115.387 8.88889L115.777 8H116V9.22222H115.833V8.22222Z" fill="white"></path>
    <path d="M114.272 9.22222H114.105V8.16667H113.77V8H114.606V8.16667H114.272V9.22222Z" fill="white"></path>
  </g>
  <defs>
    <clipPath id="clip0_1701_1116">
      <rect width="116" height="25" fill="white"></rect>
    </clipPath>
  </defs>
</svg>