<svg width="112" height="26" viewBox="0 0 112 26" fill="none" xmlns="http://www.w3.org/2000/svg">
  <g opacity="0.9" clip-path="url(#clip0_1701_1185)">
    <path d="M6.32901 8.58813L4.89766 12.4741C4.52976 13.5145 4.28833 14.2905 4.10438 14.9746C3.93193 14.279 3.69624 13.503 3.35134 12.4741L1.98322 8.58813H0.563365L-0.0114746 16.6359H1.10946L1.3279 13.1869C1.3279 13.1869 1.42562 10.9335 1.46586 10.0482C1.65556 10.807 1.91424 11.6635 2.29363 12.7787L3.59277 16.6186H4.46653L5.88063 12.7155C6.23128 11.7727 6.5302 10.8645 6.78888 9.99074C6.78888 10.9507 6.85786 12.1291 6.90959 13.1064L7.11079 16.6589H8.26047L7.75461 8.61113L6.32901 8.58813Z" fill="white"></path>
    <path d="M9.22046 13.7904C9.22046 15.5609 10.3701 16.7911 12.0199 16.7911C13.4685 16.7911 14.9286 15.8368 14.9286 13.6984C14.9286 11.9049 13.7789 10.6978 12.1119 10.6978C10.4449 10.6978 9.22046 11.9394 9.22046 13.7904ZM10.3989 13.7559C10.3989 12.6867 10.922 11.606 12.0889 11.606C13.2558 11.606 13.733 12.7097 13.733 13.7329C13.733 14.9746 13.0316 15.8828 12.0659 15.8828C11.1002 15.8828 10.3989 15.0148 10.3989 13.7559Z" fill="white"></path>
    <path d="M19.9928 8.16284V11.4739C19.7949 11.2205 19.5393 11.0179 19.2474 10.8829C18.9555 10.748 18.6356 10.6845 18.3143 10.6979C17.6657 10.7044 17.0459 10.9668 16.5898 11.4279C16.2931 11.75 16.0632 12.1277 15.9132 12.5391C15.7632 12.9505 15.6962 13.3876 15.716 13.825C15.716 15.5495 16.7737 16.7912 18.2223 16.7912C18.6018 16.8001 18.977 16.7105 19.3115 16.5312C19.646 16.3519 19.9282 16.0889 20.1308 15.768C20.1308 15.9979 20.1768 16.6647 20.1768 16.6647H21.2345L21.1885 15.1242V8.16284H19.9928ZM16.8715 13.779C16.8715 12.5029 17.5325 11.6406 18.5098 11.6406C18.8446 11.6393 19.1698 11.7527 19.4312 11.9618C19.6927 12.171 19.8746 12.4634 19.9469 12.7903L19.9928 13.2157V14.2044L19.9469 14.6355C19.8758 14.9702 19.6921 15.2704 19.4263 15.4859C19.1606 15.7015 18.8289 15.8193 18.4868 15.8197C17.2968 15.8197 16.8715 14.7218 16.8715 13.779Z" fill="white"></path>
    <path d="M22.3326 13.8652C22.3008 14.2542 22.3527 14.6454 22.4848 15.0126C22.6169 15.3797 22.8262 15.7143 23.0986 15.9938C23.371 16.2732 23.7001 16.4911 24.0637 16.6326C24.4274 16.7741 24.8172 16.836 25.2068 16.8142C25.8673 16.8274 26.5233 16.702 27.1325 16.4463H27.1785L26.9715 15.5725L26.9026 15.607C26.4121 15.814 25.8825 15.912 25.3505 15.8944C25.1014 15.9129 24.8512 15.8779 24.6167 15.7918C24.3822 15.7057 24.1689 15.5705 23.9909 15.3952C23.8129 15.22 23.6744 15.0087 23.5847 14.7755C23.495 14.5424 23.4562 14.2928 23.4708 14.0434H27.4602V13.9342V13.4974C27.4602 12.227 26.8278 10.7439 25.0343 10.7439C23.4593 10.6979 22.3326 11.9855 22.3326 13.8652ZM24.9768 11.5659C25.1499 11.5582 25.3228 11.5858 25.4849 11.6471C25.647 11.7084 25.7949 11.802 25.9196 11.9223C26.2033 12.2551 26.3547 12.6807 26.345 13.118H23.4708C23.5742 12.5144 23.9766 11.5659 24.9768 11.5659Z" fill="white"></path>
    <path d="M29.6732 11.8359C29.6732 11.5888 29.6445 10.8242 29.6445 10.8242H28.604L28.65 12.6695V16.6646H29.7997V13.5547L29.8457 13.0833C29.8732 12.7463 30.0227 12.4308 30.266 12.1959C30.5094 11.961 30.8299 11.8228 31.1678 11.8072L31.5817 11.8474V10.738L31.2253 10.6978C30.8827 10.7117 30.5521 10.8275 30.2757 11.0302C29.9992 11.2329 29.7895 11.5134 29.6732 11.8359Z" fill="white"></path>
    <path d="M33.5994 11.6749C33.5994 11.4565 33.5477 10.8242 33.5477 10.8242H32.5015L32.5532 12.4395V16.6645H33.7029V13.1638L33.7719 12.7039C33.8556 12.4153 34.0298 12.1611 34.2689 11.979C34.508 11.7968 34.7992 11.6963 35.0997 11.6922C36.1344 11.6922 36.3529 12.5717 36.3529 13.3075V16.6645H37.5026V13.2155C37.5026 10.8414 35.7781 10.7207 35.4159 10.7207C35.0575 10.7152 34.7034 10.7997 34.3861 10.9664C34.0688 11.1331 33.7983 11.3767 33.5994 11.6749Z" fill="white"></path>
    <path d="M49.1487 8.58818L48.0853 12.6465L48.045 12.8133L47.5104 15.1126C47.3782 14.3021 47.1828 13.4226 46.9988 12.6465L46.0216 8.56519H44.8719L43.774 12.6465C43.544 13.5088 43.3198 14.3711 43.1991 15.1586C43.1129 14.739 42.6645 12.658 42.6645 12.658L41.7103 8.58818H40.4629L42.5151 16.6359H43.6647L44.8144 12.4454C45.0616 11.5946 45.2283 10.8818 45.3893 10.146C45.4985 10.8933 45.6537 11.6233 45.8606 12.4454L46.8723 16.6359H48.022L50.3214 8.58818H49.1487Z" fill="white"></path>
    <path d="M50.333 13.7904C50.333 15.5609 51.4827 16.7911 53.1382 16.7911C54.5811 16.7911 56.0412 15.8368 56.0412 13.6984C56.0412 11.9049 54.8915 10.6978 53.2302 10.6978C51.5689 10.6978 50.333 11.9394 50.333 13.7904ZM51.5172 13.7559C51.5172 12.6867 52.0403 11.606 53.2072 11.606C54.3741 11.606 54.8685 12.7154 54.8685 13.7329C54.8685 14.9746 54.1672 15.8828 53.2015 15.8828C52.2357 15.8828 51.5172 15.0148 51.5172 13.7559Z" fill="white"></path>
    <path d="M56.8057 13.7904C56.8057 15.5609 57.9553 16.7911 59.6051 16.7911C61.0537 16.7911 62.5138 15.8368 62.5138 13.6984C62.5138 11.9049 61.3641 10.6978 59.7029 10.6978C58.0416 10.6978 56.8057 11.9394 56.8057 13.7904ZM57.9898 13.7559C57.9898 12.6867 58.5129 11.606 59.6741 11.606C60.8353 11.606 61.3182 12.7097 61.3182 13.7329C61.3182 14.9746 60.6168 15.8828 59.6511 15.8828C58.6854 15.8828 57.9898 15.0148 57.9898 13.7559Z" fill="white"></path>
    <path d="M67.5781 8.16284V11.4739C67.3807 11.2198 67.1253 11.0167 66.8332 10.8816C66.5412 10.7466 66.221 10.6836 65.8995 10.6979C65.5781 10.6999 65.2603 10.7654 64.9644 10.8907C64.6684 11.016 64.4001 11.1986 64.175 11.4279C63.8776 11.7497 63.6468 12.1272 63.4958 12.5386C63.3449 12.95 63.2768 13.3872 63.2955 13.825C63.2955 15.5495 64.3532 16.7912 65.8018 16.7912C66.1822 16.8011 66.5586 16.712 66.8942 16.5326C67.2297 16.3533 67.5129 16.0898 67.716 15.768C67.716 15.9979 67.7563 16.6647 67.7563 16.6647H68.8197L68.768 15.1242V8.16284H67.5781ZM64.4567 13.779C64.4567 12.5029 65.1178 11.6406 66.1007 11.6406C66.4351 11.6385 66.76 11.7517 67.0207 11.9611C67.2814 12.1705 67.462 12.4633 67.5321 12.7903L67.5781 13.2157V14.2044L67.5321 14.6355C67.4612 14.9693 67.2783 15.2687 67.0138 15.4841C66.7492 15.6995 66.4189 15.818 66.0777 15.8197C64.8821 15.8197 64.4567 14.7218 64.4567 13.779Z" fill="white"></path>
    <path d="M75.3672 11.1117C75.1353 11.307 74.9405 11.5427 74.7923 11.8072C74.6665 11.4775 74.4424 11.1943 74.1505 10.9959C73.8585 10.7975 73.5128 10.6934 73.1598 10.6978C72.8054 10.6899 72.4551 10.7755 72.1443 10.9461C71.8334 11.1166 71.573 11.3661 71.3893 11.6693C71.3893 11.4681 71.3491 10.8243 71.3491 10.8243H70.3086L70.3546 12.4396V16.6646H71.5043V13.1581L71.579 12.6753C71.6555 12.4034 71.8142 12.1619 72.0334 11.9838C72.2527 11.8057 72.5216 11.6999 72.8034 11.6808C73.5105 11.6808 73.9531 12.2556 73.9531 13.1754V16.6646H75.1028V13.0719L75.1832 12.5718C75.2613 12.3239 75.4133 12.1057 75.6187 11.9465C75.8242 11.7872 76.0733 11.6945 76.3329 11.6808C77.2986 11.6808 77.4826 12.6005 77.4826 13.3651V16.6646H78.6323V13.2156C78.6323 11.3416 77.6321 10.6748 76.6951 10.6748C76.2146 10.6581 75.7439 10.8129 75.3672 11.1117Z" fill="white"></path>
    <path d="M79.7476 13.8652C79.7158 14.2542 79.7677 14.6454 79.8998 15.0126C80.032 15.3797 80.2413 15.7143 80.5137 15.9938C80.786 16.2732 81.1151 16.4911 81.4788 16.6326C81.8424 16.7741 82.2322 16.836 82.6218 16.8142C83.2823 16.8267 83.9382 16.7014 84.5475 16.4463H84.5993L84.3866 15.5725L84.3176 15.607C83.8253 15.8145 83.2937 15.9125 82.7598 15.8944C82.5111 15.912 82.2616 15.8764 82.0278 15.7899C81.794 15.7034 81.5814 15.5681 81.404 15.3929C81.2267 15.2177 81.0887 15.0068 80.9994 14.7741C80.91 14.5414 80.8713 14.2923 80.8858 14.0434H84.8752V13.9342L84.9039 13.4974C84.9039 12.227 84.2716 10.7439 82.4781 10.7439C80.8743 10.6979 79.7476 11.9855 79.7476 13.8652ZM82.4091 11.5659C82.5823 11.5578 82.7552 11.5853 82.9174 11.6466C83.0795 11.7079 83.2274 11.8017 83.3519 11.9223C83.6356 12.2551 83.787 12.6807 83.7772 13.118H80.903C80.995 12.5144 81.3917 11.5659 82.4091 11.5659Z" fill="white"></path>
    <path d="M87.1227 11.6749C87.1227 11.4565 87.0652 10.8242 87.0652 10.8242H86.019L86.065 12.4395V16.6646H87.2147V13.1638L87.2779 12.7039C87.3628 12.4148 87.5381 12.1605 87.7781 11.9784C88.0182 11.7963 88.3103 11.696 88.6116 11.6922C89.6463 11.6922 89.8647 12.5717 89.8647 13.3075V16.6646H91.0144V13.2155C91.0144 10.8414 89.2899 10.7207 88.9335 10.7207C88.5758 10.7152 88.2226 10.7997 87.9061 10.9664C87.5897 11.1332 87.3203 11.3768 87.1227 11.6749Z" fill="white"></path>
    <path d="M23.8271 21.4531H26.3162V22.1544H24.7124V23.2581H26.23V23.9652H24.7124V25.9369H23.8271V21.4531Z" fill="white"></path>
    <path d="M27.2014 21.453H28.1729C29.1329 21.453 30.2826 21.4185 30.2826 22.6601C30.2881 22.9184 30.1958 23.1691 30.0241 23.3621C29.8524 23.5551 29.6142 23.676 29.3571 23.7006C29.5985 23.7006 29.7422 23.965 29.8284 24.1662L30.547 25.8907H29.5755L29.0007 24.5284C28.8685 24.195 28.7535 24.0685 28.3798 24.0685H28.0867V25.9367H27.2014V21.453ZM28.0982 23.3614H28.4258C28.8685 23.3614 29.3743 23.2982 29.3743 22.7406C29.3743 22.183 28.8742 22.1658 28.4258 22.1658H28.1269L28.0982 23.3614Z" fill="white"></path>
    <path d="M32.737 21.4531H33.7487L35.5077 25.9369H34.5133L34.1281 24.9137H32.3116L31.9207 25.9369H30.9895L32.737 21.4531ZM33.2314 22.3499L32.5703 24.2124H33.8752L33.2314 22.3499Z" fill="white"></path>
    <path d="M36.6403 22.1544H35.3584V21.4531H38.8074V22.1544H37.537V25.9369H36.6403V22.1544Z" fill="white"></path>
    <path d="M39.5203 21.4531H42.1645V22.1544H40.44V23.2581H42.0381V23.9652H40.417V25.2241H42.176V25.9369H39.5203V21.4531Z" fill="white"></path>
    <path d="M43.2625 21.453H44.2339C45.1939 21.453 46.3436 21.4185 46.3436 22.6601C46.3491 22.9184 46.2568 23.1691 46.0851 23.3621C45.9135 23.5551 45.6752 23.676 45.4181 23.7006C45.6653 23.7006 45.8032 23.965 45.8952 24.1662L46.6138 25.8907H45.6135L45.0962 24.5284C44.9697 24.195 44.8548 24.0685 44.4754 24.0685H44.1879V25.9367H43.2625V21.453ZM44.1649 23.3614H44.4581C44.9007 23.3614 45.4066 23.2982 45.4066 22.7406C45.4066 22.183 44.9065 22.1658 44.4581 22.1658H44.1649V23.3614Z" fill="white"></path>
    <path d="M47.4703 21.4531H48.574L50.2697 24.7872V21.4531H51.1262V25.9369H50.034L48.3095 22.5913V25.9369H47.4473L47.4703 21.4531Z" fill="white"></path>
    <path d="M53.5579 21.4531H54.5696L56.3287 25.9369H55.3342L54.949 24.9137H53.144L52.7417 25.9369H51.8162L53.5579 21.4531ZM54.0523 22.3499L53.3912 24.2124H54.6961L54.0523 22.3499Z" fill="white"></path>
    <path d="M57.1677 21.4531H58.0645V25.2241H59.789V25.9369H57.1677V21.4531Z" fill="white"></path>
    <path d="M62.6633 21.4531H65.1524V22.1544H63.5601V23.2581H65.0719V23.9652H63.5601V25.9369H62.6633V21.4531Z" fill="white"></path>
    <path d="M66.0492 21.4531H66.9402V25.9369H66.0435L66.0492 21.4531Z" fill="white"></path>
    <path d="M68.1184 21.4531H69.2393L70.9639 24.7987V21.4531H71.8204V25.9369H70.7282L69.0037 22.5913V25.9369H68.1414L68.1184 21.4531Z" fill="white"></path>
    <path d="M74.3326 21.4531H75.3443L77.1033 25.9369H76.1376L75.7524 24.9137H73.9359L73.5163 25.9369H72.5908L74.3326 21.4531ZM74.8269 22.3499L74.1659 24.2124H75.4765L74.8269 22.3499Z" fill="white"></path>
    <path d="M77.8909 21.4531H79.0118L80.7363 24.7987V21.4531H81.5928V25.9369H80.5006L78.7761 22.5913V25.9369H77.9139L77.8909 21.4531Z" fill="white"></path>
    <path d="M85.8235 25.8621C85.4906 25.9473 85.1494 25.9955 84.806 26.0058C83.3517 26.0058 82.3457 25.2815 82.3457 23.7639C82.3457 22.2463 83.2827 21.3726 84.806 21.3726C85.1519 21.3744 85.4947 21.4387 85.8177 21.5623L85.7545 22.3153C85.4579 22.1505 85.1222 22.069 84.783 22.0796C84.5754 22.0789 84.3699 22.1214 84.1796 22.2042C83.9892 22.287 83.8181 22.4085 83.6771 22.5608C83.536 22.7132 83.4282 22.8932 83.3603 23.0894C83.2924 23.2856 83.266 23.4937 83.2827 23.7007C83.2646 23.9087 83.291 24.1182 83.3601 24.3153C83.4292 24.5124 83.5395 24.6924 83.6836 24.8436C83.8277 24.9948 84.0023 25.1135 84.1958 25.192C84.3893 25.2705 84.5973 25.3068 84.806 25.2987C85.1415 25.3049 85.4745 25.2403 85.7832 25.109L85.8235 25.8621Z" fill="white"></path>
    <path d="M86.7893 21.4531H87.6918V25.9369H86.7893V21.4531Z" fill="white"></path>
    <path d="M90.1922 21.4531H91.204L92.9285 25.9254H91.9398L91.5546 24.9022H89.7381L89.3587 25.9369H88.4275L90.1922 21.4531ZM90.6809 22.3499L90.0255 24.2124H91.3304L90.6809 22.3499Z" fill="white"></path>
    <path d="M93.7908 21.4531H94.6933V25.2241H96.4178V25.9369H93.7793L93.7908 21.4531Z" fill="white"></path>
    <path d="M102.005 8.10814e-05C98.7941 -0.0548889 95.5985 0.458893 92.5664 1.51766C92.5664 1.51766 94.038 13.3364 102.16 20.6943C110.248 13.4168 111.737 1.83382 111.778 1.52915C108.614 0.536421 105.321 0.0210599 102.005 8.10814e-05Z" fill="white"></path>
    <path d="M97.4065 12.635C100.793 9.95279 104.872 8.28816 109.168 7.83508C109.013 8.25471 108.857 8.66285 108.691 9.06524C104.946 10.0868 101.527 12.0545 98.7631 14.7791C98.2688 14.0951 97.8146 13.3765 97.4065 12.635ZM99.5392 15.8311C100.341 16.8733 101.226 17.8498 102.183 18.7513C104.911 16.1186 107.064 12.9499 108.507 9.44463C104.994 10.991 102.201 12.7155 99.5219 15.8311H99.5392ZM96.1418 10.1862C96.389 10.761 96.6535 11.2726 96.9294 11.79C100.568 9.2872 104.827 7.8353 109.237 7.59365C109.294 7.43844 109.346 7.28324 109.398 7.12803C104.989 7.03031 99.6024 8.19148 96.1418 10.1862Z" fill="black" fill-opacity="0.6"></path>
    <path d="M110.697 2.2073C105.072 0.977124 99.2485 0.977124 93.624 2.2073C93.6988 2.56945 93.7735 2.92585 93.854 3.2765C95.8889 3.78236 99.861 2.00611 99.8266 4.3457C105.931 3.72488 106.725 4.63887 106.88 5.4264C108.547 5.21946 109.484 5.70807 109.432 6.90374H109.478C109.986 5.3665 110.393 3.79767 110.697 2.2073Z" fill="black" fill-opacity="0.6"></path>
    <path d="M108.788 17.8431C108.98 17.8401 109.171 17.8748 109.349 17.9454C109.527 18.016 109.69 18.121 109.828 18.2545C109.965 18.3879 110.075 18.5472 110.152 18.7232C110.228 18.8992 110.268 19.0885 110.271 19.2802C110.279 19.4719 110.246 19.663 110.177 19.8419C110.108 20.0207 110.002 20.1835 109.868 20.3202C109.733 20.4569 109.572 20.5647 109.394 20.6369C109.217 20.7092 109.026 20.7443 108.834 20.7403C108.64 20.7433 108.447 20.7079 108.266 20.6361C108.085 20.5643 107.92 20.4575 107.781 20.3219C107.642 20.1862 107.53 20.0244 107.454 19.8456C107.377 19.6669 107.336 19.4747 107.334 19.2802C107.33 19.0894 107.365 18.8998 107.436 18.7229C107.508 18.546 107.615 18.3855 107.75 18.2511C107.886 18.1167 108.047 18.0112 108.225 17.9411C108.402 17.8709 108.592 17.8376 108.783 17.8431H108.788ZM108.788 18.096C108.634 18.096 108.482 18.1268 108.34 18.1867C108.199 18.2467 108.07 18.3344 107.963 18.4449C107.856 18.5553 107.772 18.6862 107.716 18.8297C107.66 18.9731 107.634 19.1264 107.639 19.2802C107.637 19.4367 107.667 19.5919 107.726 19.7369C107.784 19.8819 107.871 20.0138 107.981 20.125C108.092 20.2362 108.223 20.3244 108.367 20.3847C108.511 20.4449 108.666 20.4759 108.823 20.4759C108.976 20.477 109.127 20.4466 109.267 20.3866C109.408 20.3266 109.534 20.2382 109.639 20.1271C109.743 20.0159 109.824 19.8844 109.876 19.7406C109.927 19.5969 109.948 19.444 109.938 19.2917C109.944 19.1369 109.919 18.9824 109.864 18.8376C109.809 18.6928 109.725 18.5605 109.618 18.4489C109.511 18.3372 109.382 18.2484 109.239 18.1877C109.097 18.1271 108.943 18.0959 108.788 18.096ZM108.57 20.0792H108.288V18.5674C108.461 18.5352 108.636 18.5198 108.811 18.5214C108.981 18.5058 109.152 18.5483 109.294 18.6421C109.343 18.6793 109.382 18.7272 109.409 18.782C109.436 18.8369 109.45 18.8972 109.449 18.9583C109.449 19.0422 109.421 19.1235 109.368 19.1892C109.316 19.2549 109.244 19.3011 109.162 19.3205C109.231 19.3552 109.291 19.4064 109.336 19.4695C109.381 19.5326 109.41 19.6058 109.421 19.6826C109.433 19.8156 109.472 19.9446 109.536 20.062H109.243C109.177 19.939 109.136 19.8042 109.122 19.6654C109.082 19.4987 108.978 19.4297 108.765 19.4297H108.581L108.57 20.0792ZM108.57 19.2285H108.76C108.972 19.2285 109.151 19.1652 109.151 18.9813C109.151 18.7973 109.053 18.7399 108.783 18.7399C108.71 18.7343 108.637 18.7343 108.564 18.7399L108.57 19.2285Z" fill="white"></path>
  </g>
  <defs>
    <clipPath id="clip0_1701_1185">
      <rect width="111.772" height="26" fill="white"></rect>
    </clipPath>
  </defs>
</svg>