<svg width="115" height="36" viewBox="0 0 115 36" fill="none" xmlns="http://www.w3.org/2000/svg">
  <path d="M55.9093 12.1634L53.2911 7.03613H51.9275V14.0725H52.7457V8.78159L55.3639 14.0725H55.7457L58.4184 8.78159V14.0725H59.782V7.03613H58.4184L55.9093 12.1634Z" fill="white"></path>
  <path d="M68.0727 8.61822C67.9091 8.40004 67.6909 8.12731 67.4182 7.90913C67.2 7.69095 66.9273 7.52731 66.6 7.36368C66.2727 7.20004 66.0545 7.14549 65.6182 6.98186C64.9636 6.81822 64.2 6.81822 63.5455 6.98186C63.2182 7.0364 62.8909 7.20004 62.5636 7.36368C62.2364 7.52731 62.0182 7.69095 61.7455 7.90913C61.5273 8.12731 61.3636 8.40004 61.2 8.61822C61.0364 8.8364 60.8727 9.16368 60.8182 9.49095C60.7636 9.81822 60.6545 10.1455 60.6545 10.4728C60.6545 10.8 60.7091 11.1273 60.8182 11.4546C60.8727 11.7819 61.0364 12.1091 61.2 12.3273C61.3636 12.5455 61.5818 12.8728 61.7455 13.0364C61.9636 13.2546 62.2364 13.4182 62.5636 13.5819C62.8909 13.7455 63.1091 13.9091 63.5455 13.9637C63.8727 14.0182 64.2 14.1273 64.5818 14.1273C64.9091 14.1273 65.2909 14.0728 65.6182 13.9637C65.9455 13.8546 66.2727 13.7455 66.6 13.5819C66.9273 13.4182 67.1455 13.2546 67.4182 13.0364C67.6364 12.8182 67.8 12.5455 67.9636 12.3273C68.1273 12.1091 68.2909 11.7819 68.3455 11.4546C68.4 11.1273 68.5091 10.8 68.5091 10.4728C68.5091 10.1455 68.4545 9.81822 68.3455 9.49095C68.4 9.21822 68.2364 8.94549 68.0727 8.61822ZM67.0364 10.4728C67.0364 10.9637 66.9818 11.3455 66.8727 11.7273C66.8182 12.1091 66.6545 12.4364 66.3818 12.7091C66.2182 12.9273 66 13.2 65.6727 13.3637C65.4545 13.5273 65.0182 13.5819 64.6909 13.5819C64.3091 13.5819 63.9818 13.5273 63.7091 13.3637C63.3818 13.2 63.2182 12.9819 63 12.7091C62.8364 12.4909 62.6727 12.0546 62.6182 11.7273C62.5636 11.3455 62.4545 10.9091 62.4545 10.4728C62.4545 10.0364 62.5091 9.60004 62.6182 9.21822C62.6727 8.8364 62.8364 8.50913 63 8.2364C63.1636 8.01822 63.3818 7.74549 63.7091 7.58186C64.0364 7.41822 64.3636 7.36368 64.6909 7.36368C65.0727 7.36368 65.4 7.41822 65.6727 7.58186C65.8909 7.74549 66.1636 7.90913 66.3818 8.2364C66.5455 8.45459 66.7091 8.78186 66.8727 9.21822C66.9818 9.60004 67.0364 10.0909 67.0364 10.4728Z" fill="white"></path>
  <path d="M76.6362 8.61822C76.4726 8.40004 76.2544 8.12731 76.0908 7.90913C75.8726 7.69095 75.5999 7.52731 75.2726 7.36368C74.9453 7.20004 74.7271 7.14549 74.2908 6.98186C73.6362 6.81822 72.8726 6.81822 72.2181 6.98186C71.8908 7.0364 71.5635 7.20004 71.2362 7.36368C70.909 7.52731 70.6908 7.69095 70.4181 7.90913C70.1999 8.12731 70.0362 8.40004 69.8726 8.61822C69.709 8.8364 69.5453 9.16368 69.4908 9.49095C69.4362 9.81822 69.3271 10.1455 69.3271 10.4728C69.3271 10.8 69.3817 11.1273 69.4908 11.4546C69.5453 11.7819 69.709 12.1091 69.8726 12.3273C70.0362 12.5455 70.2544 12.8728 70.4181 13.0364C70.6362 13.2546 70.909 13.4182 71.2362 13.5819C71.5635 13.7455 71.7817 13.9091 72.2181 13.9637C72.5453 14.0182 72.9272 14.1273 73.2544 14.1273C73.5817 14.1273 73.9635 14.0728 74.2908 13.9637C74.6181 13.8546 74.9453 13.7455 75.2726 13.5819C75.5999 13.4182 75.8181 13.2546 76.0908 13.0364C76.309 12.8182 76.4726 12.5455 76.6362 12.3273C76.7999 12.1091 76.9635 11.7819 77.0181 11.4546C77.0726 11.1273 77.1817 10.8 77.1817 10.4728C77.1817 10.1455 77.1271 9.81822 77.0181 9.49095C76.8544 9.21822 76.7999 8.94549 76.6362 8.61822ZM75.5453 10.4728C75.5453 10.9637 75.4908 11.3455 75.3817 11.7273C75.3271 12.1091 75.1635 12.4364 74.8908 12.7091C74.7272 12.9273 74.509 13.2 74.1817 13.3637C73.9635 13.5273 73.5271 13.5819 73.1999 13.5819C72.8181 13.5819 72.4908 13.5273 72.2181 13.3637C71.8908 13.2 71.7272 12.9819 71.509 12.7091C71.3453 12.4909 71.1817 12.0546 71.1271 11.7273C71.0726 11.3455 70.9635 10.9091 70.9635 10.4728C70.9635 10.0364 71.0181 9.60004 71.1271 9.21822C71.1817 8.8364 71.3453 8.50913 71.509 8.2364C71.6726 8.01822 71.8908 7.74549 72.2181 7.58186C72.4362 7.41822 72.8726 7.36368 73.1999 7.36368C73.5817 7.36368 73.909 7.41822 74.1817 7.58186C74.3999 7.74549 74.6726 7.90913 74.8908 8.2364C75.0544 8.45459 75.2181 8.78186 75.3817 9.21822C75.5453 9.60004 75.5453 10.0909 75.5453 10.4728Z" fill="white"></path>
  <path d="M83.782 7.85431C83.4548 7.52704 82.9639 7.36341 82.5275 7.19977C82.0366 7.03613 81.382 7.03613 80.6729 7.03613H78.2729V14.0725H80.8911C81.5457 14.0725 82.0911 14.018 82.582 13.8543C83.0729 13.6907 83.5639 13.3634 83.8366 13.0361C84.1093 12.7089 84.4911 12.327 84.6548 11.8907C84.8184 11.5089 84.873 11.018 84.873 10.527C84.873 10.0361 84.8184 9.49068 84.5457 9.10886C84.4911 8.61795 84.1639 8.23613 83.782 7.85431ZM83.3457 10.4725C83.3457 10.9634 83.2911 11.3452 83.1275 11.6725C82.9639 11.9998 82.8002 12.327 82.582 12.5452C82.3639 12.7634 82.0911 12.927 81.7639 13.0907C81.4366 13.1452 81.1093 13.2543 80.7275 13.2543H79.582V7.74522H80.7275C81.1093 7.74522 81.4366 7.79977 81.7639 7.96341C82.0911 8.12704 82.3093 8.29068 82.582 8.50886C82.8002 8.72704 82.9639 9.05432 83.1275 9.38159C83.3457 9.76341 83.3457 10.0907 83.3457 10.4725Z" fill="white"></path>
  <path d="M90.7091 7.03638L88.4182 10.4182L86.1818 7.03638H84.6545L87.5455 11.1273V14.0727H88.8545V11.0182L91.5818 7.03638H90.7091Z" fill="white"></path>
  <path d="M57.4364 20.3456C57.1092 20.1274 56.7273 19.9637 56.291 19.8001C55.9092 19.7456 55.4183 19.6365 54.9273 19.6365H51.8728V29.0728H53.7273V24.9274C53.7819 24.9274 53.7819 24.9274 53.891 24.9274C54.0546 24.9274 54.2183 24.9274 54.3819 24.9819C54.5455 24.9819 54.7092 24.9819 54.8728 24.9819C55.4183 24.9819 56.0183 24.9819 56.4546 24.8183C56.8364 24.7637 57.1637 24.6001 57.491 24.3274C57.8183 24.0547 58.0364 23.8365 58.2001 23.5092C58.3637 23.1819 58.4183 22.8001 58.4183 22.3637C58.4183 21.9274 58.3637 21.5456 58.091 21.1637C58.091 20.891 57.7637 20.5637 57.4364 20.3456ZM53.7819 20.6183H54.6546C54.8728 20.6183 55.1455 20.6728 55.3637 20.7819C55.5819 20.8365 55.7455 21.0001 55.9092 21.1637C56.0728 21.3274 56.2364 21.491 56.291 21.7092C56.3455 21.9274 56.4546 22.2001 56.4546 22.5274C56.4546 22.7456 56.4546 23.0183 56.4001 23.1819C56.3455 23.4001 56.2364 23.5637 56.0728 23.7274C55.9092 23.891 55.7455 23.9456 55.5274 24.1092C55.1455 24.2728 54.6546 24.2728 54.1637 24.1637C54.0001 24.1637 53.8364 24.1092 53.7819 24.1092V20.6183Z" fill="white"></path>
  <path d="M63.9819 26.8909C63.9273 27.0546 63.8182 27.1091 63.6546 27.2728C63.491 27.4364 63.4364 27.4909 63.2728 27.6C63.1091 27.7091 63.0546 27.7637 62.891 27.8182C62.5637 27.9819 62.2364 27.8728 61.9091 27.8182C61.7455 27.7637 61.5819 27.6546 61.5273 27.6C61.3637 27.5455 61.3091 27.3819 61.2 27.2728C61.1455 27.1091 61.1455 27.0546 61.1455 26.8909V21.7637H59.4546V26.8909C59.4546 27.2182 59.5091 27.5455 59.6182 27.7637C59.7819 28.0909 59.9455 28.3091 60.1091 28.4728C60.3273 28.6909 60.6 28.8546 60.8182 28.9637C61.1455 29.1273 61.3637 29.1273 61.8 29.1273C62.0182 29.1273 62.291 29.1273 62.5091 28.9637C62.7273 28.9091 63 28.8 63.2182 28.6364C63.4364 28.4728 63.6 28.3091 63.8728 28.1455C63.9273 28.0909 64.0364 27.9819 64.0364 27.9819V29.0182H65.7273V21.7637H64.0364V26.8909H63.9819Z" fill="white"></path>
  <path d="M73.3638 22.5819C73.1456 22.2546 72.8183 22.0364 72.382 21.8728C71.8365 21.6546 71.182 21.4909 70.4729 21.7091C70.2547 21.7637 69.982 21.8728 69.7638 22.0364C69.5456 22.2 69.3819 22.3637 69.1092 22.5273C69.1092 22.5819 69.1092 22.6909 69.0547 22.6909V18.1091H68.5092L67.3638 18.6V28.2546L67.4183 28.3091C67.8001 28.6364 68.2365 28.8546 68.6729 28.9637C69.1638 29.1273 69.6547 29.1819 70.2001 29.1819C70.582 29.1819 70.9092 29.1273 71.3456 29.0182C71.6729 28.9637 72.0001 28.8 72.3274 28.6364C72.6547 28.4728 72.8729 28.2546 73.1456 27.9819C73.4183 27.7091 73.6365 27.4364 73.8001 27.1091C73.9638 26.7819 74.1274 26.4546 74.182 26.0728C74.2365 25.6909 74.3456 25.3637 74.3456 24.9273C74.3456 24.4364 74.291 24.0546 74.1274 23.6728C73.8547 23.1819 73.691 22.8 73.3638 22.5819ZM69.6547 23.1819C69.8183 23.1273 69.982 23.0182 70.1456 23.0182C70.5274 22.9637 70.9638 22.9637 71.291 23.0728C71.5092 23.1273 71.6729 23.4 71.8365 23.5637C72.0001 23.7819 72.1638 24.0546 72.2183 24.2728C72.2729 24.6 72.382 24.8182 72.382 25.1455C72.382 25.5273 72.3274 26.0182 72.2183 26.3455C72.1638 26.7273 72.0001 27.0546 71.8365 27.3273C71.6729 27.5455 71.4547 27.8182 71.182 27.9819C70.9092 28.1455 70.691 28.2 70.3638 28.2C70.2001 28.2 70.0365 28.2 69.8729 28.1455C69.7092 28.1455 69.6547 28.0909 69.491 27.9819C69.4365 27.9273 69.2729 27.8182 69.1638 27.7637C69.1092 27.7091 69.0001 27.6 68.9456 27.6V23.6728C69.0001 23.6182 69.1092 23.5091 69.1638 23.4546C69.4365 23.3455 69.5456 23.2909 69.6547 23.1819Z" fill="white"></path>
  <path d="M75.4365 18.5454V29.0181H77.182V18.1636H76.6365L75.4365 18.5454Z" fill="white"></path>
  <path d="M78.8181 21.9819V29.0183H80.4545V21.6001H79.909L78.8181 21.9819Z" fill="white"></path>
  <path d="M80.3453 18.3818C80.2908 18.3272 80.1817 18.2182 80.0181 18.2182C79.7999 18.1636 79.5272 18.1636 79.309 18.2182C79.2544 18.2727 79.0908 18.2727 78.9817 18.3818C78.9272 18.4363 78.8181 18.5454 78.7635 18.6C78.709 18.6545 78.709 18.8182 78.709 18.9272C78.709 19.0909 78.709 19.1454 78.7635 19.2545C78.8181 19.3636 78.9272 19.4182 78.9817 19.4727C79.0363 19.5272 79.1453 19.6363 79.309 19.6363C79.3635 19.6909 79.5272 19.6909 79.6908 19.6909C79.8544 19.6909 79.909 19.6909 80.0726 19.6363C80.1272 19.5818 80.2908 19.5818 80.3999 19.4727C80.509 19.3636 80.5635 19.3091 80.6181 19.2545C80.6726 19.2 80.6726 19.0363 80.6726 18.9272C80.6726 18.7636 80.6726 18.7091 80.6181 18.6C80.4544 18.5454 80.3999 18.4909 80.3453 18.3818Z" fill="white"></path>
  <path d="M86.5636 25.4182C86.3455 25.2546 86.1818 25.0909 85.8545 24.9273C85.6364 24.7637 85.3636 24.7091 85.1455 24.6C84.9273 24.5455 84.6545 24.3819 84.4364 24.2728C84.2182 24.2182 83.9455 24.0546 83.7818 23.9455C83.6182 23.8364 83.4545 23.7273 83.4 23.5637C83.3454 23.4 83.2364 23.3455 83.2364 23.0728C83.2364 23.0182 83.2364 22.9091 83.2909 22.8546C83.3455 22.8 83.4545 22.6909 83.5091 22.6364C83.5636 22.5819 83.7273 22.4728 83.8909 22.4728C84.0545 22.4182 84.2182 22.4182 84.3818 22.4182C84.7091 22.4182 85.0364 22.4728 85.3636 22.7455C85.6909 22.9091 85.9091 23.2364 86.1818 23.6182L86.2364 23.7819L87.0545 23.0728L87 22.9091C86.7818 22.5819 86.6182 22.4182 86.3455 22.2C86.1273 22.0364 85.9636 21.8728 85.6909 21.8182C85.4182 21.7637 85.3091 21.6546 85.0364 21.6C84.4909 21.5455 83.8364 21.5455 83.3455 21.6546C83.0182 21.7091 82.8 21.8728 82.5273 22.0364C82.2545 22.2 82.1455 22.4182 81.9818 22.6909C81.8182 22.9091 81.8182 23.2364 81.8182 23.5637C81.8182 23.8909 81.8727 24.2182 81.9818 24.4364C82.0364 24.6546 82.2 24.9273 82.4727 25.0909C82.6364 25.2546 82.8545 25.4182 83.1273 25.5819C83.3454 25.7455 83.6182 25.8 83.8364 25.9637C84.0545 26.0182 84.3273 26.1819 84.5455 26.2909C84.7636 26.3455 84.9273 26.5091 85.0909 26.6182C85.2545 26.6728 85.4182 26.8364 85.4727 27C85.5273 27.1637 85.6364 27.3273 85.6364 27.4909C85.6364 27.5455 85.6364 27.7091 85.5818 27.8182C85.5273 27.9273 85.4182 27.9819 85.3636 28.1455C85.3091 28.2 85.1455 28.3091 84.9818 28.3091C84.6545 28.3637 84.3273 28.3637 84 28.3091C83.8364 28.2546 83.6727 28.2546 83.5091 28.0909C83.3455 28.0364 83.1818 27.8728 83.0182 27.7091C82.8545 27.5455 82.6909 27.3819 82.5273 27.1637L82.4727 27L81.6545 27.7091L81.7091 27.8728C81.9273 28.2 82.2 28.3637 82.3636 28.5819C82.5818 28.7455 82.8545 28.9091 83.0727 28.9637C83.2909 29.0182 83.5636 29.1273 83.7818 29.1273C84 29.1273 84.2727 29.1819 84.4364 29.1819C84.9273 29.1819 85.3091 29.1273 85.6364 29.0182C85.9636 28.9091 86.2909 28.8 86.5091 28.5273C86.7273 28.3091 86.8909 28.0364 87.0545 27.8182C87.2182 27.6 87.2182 27.2728 87.2182 26.9455C87.2182 26.6182 87.1636 26.4 87.0545 26.0728C86.9455 25.8546 86.7818 25.5819 86.5636 25.4182Z" fill="white"></path>
  <path d="M94.0911 22.2546C93.9274 22.0364 93.7093 21.8728 93.4365 21.7637C93.2184 21.6001 92.9456 21.6001 92.6184 21.6001C92.1274 21.6001 91.6365 21.7637 91.2002 21.9819C90.8184 22.1455 90.4911 22.4728 90.1638 22.8001V18.2183H89.6184L88.4729 18.7092V29.1274H90.1638V23.8364C90.3274 23.6728 90.382 23.6183 90.5456 23.5092C90.7093 23.4546 90.8729 23.291 91.0365 23.1819C91.2002 23.1274 91.3638 23.0183 91.5274 23.0183C92.0184 22.8546 92.4002 22.9637 92.6729 23.2364C92.8365 23.4546 92.8911 23.7819 92.8911 24.2183V29.0183H94.582V23.8364C94.582 23.5092 94.5275 23.1819 94.4184 22.9637C94.4184 22.7455 94.2547 22.4728 94.0911 22.2546Z" fill="white"></path>
  <path d="M102.164 26.1819C102.109 26.3455 102 26.5637 101.836 26.7273C101.673 26.891 101.509 27.1091 101.291 27.2182C101.073 27.3819 100.8 27.4364 100.582 27.6001C100.036 27.7637 99.3818 27.7637 98.8363 27.5455C98.6181 27.3819 98.2909 27.1637 98.1272 26.891C97.909 26.6728 97.7454 26.2364 97.6363 25.9091C97.5818 25.5819 97.4727 25.2001 97.4727 24.7637H102.655V24.6001C102.655 24.2182 102.6 23.7819 102.436 23.4001C102.273 23.0182 102.055 22.691 101.782 22.4182C101.455 22.091 101.127 21.9273 100.745 21.7091C100.364 21.5455 99.8727 21.491 99.3818 21.491C98.8363 21.491 98.3454 21.5455 97.9636 21.8182C97.4727 22.0364 97.1454 22.3091 96.8181 22.691C96.4909 23.0182 96.2727 23.5091 96.109 23.9455C95.9454 24.4364 95.8909 24.9819 95.8909 25.5273C95.8909 26.0182 95.9454 26.5091 96.2181 26.891C96.3818 27.2728 96.709 27.7091 97.0363 28.0364C97.3636 28.3637 97.7454 28.5819 98.1818 28.7455C98.6181 28.9091 99.0545 28.9637 99.5454 28.9637C99.9272 28.9637 100.255 28.9091 100.691 28.7455C101.073 28.5819 101.4 28.4182 101.727 28.2001C102.055 27.9819 102.273 27.6546 102.545 27.3273C102.764 27.0001 102.927 26.6182 103.036 26.291V26.1819L102.327 25.8546L102.164 26.1819ZM100.636 23.9455H97.5272C97.5272 23.7819 97.5818 23.6182 97.6909 23.4546C97.7454 23.2364 97.909 23.0728 98.0181 22.9091C98.1818 22.7455 98.3454 22.691 98.5091 22.5819C98.8909 22.4182 99.3272 22.4182 99.7091 22.5819C99.8727 22.6364 100.091 22.8001 100.2 22.9091C100.364 23.0728 100.418 23.2364 100.527 23.4546C100.582 23.6182 100.636 23.7819 100.636 23.9455Z" fill="white"></path>
  <path d="M108.382 21.8182C108.327 21.7637 108.164 21.6546 108 21.6C107.673 21.5455 107.291 21.5455 106.855 21.6546C106.691 21.7091 106.473 21.8182 106.309 21.9819C106.145 22.1455 105.982 22.3091 105.818 22.4728C105.764 22.5273 105.764 22.5273 105.655 22.6364V21.6546H103.964V29.0182H105.655V24.0546C105.709 23.8909 105.818 23.8364 105.873 23.6728C105.927 23.5091 106.036 23.4546 106.091 23.3455C106.145 23.2909 106.255 23.1819 106.309 23.1819C106.473 23.1273 106.636 23.1273 106.691 23.1819C106.745 23.1819 106.855 23.2364 106.909 23.2364C106.964 23.2909 107.073 23.2909 107.127 23.4C107.182 23.4546 107.345 23.4546 107.509 23.4546C107.836 23.4546 108.055 23.4 108.218 23.2364C108.382 23.0728 108.436 22.8546 108.436 22.5819C108.436 22.4182 108.436 22.3637 108.382 22.2C108.655 22.0909 108.545 21.9273 108.382 21.8182Z" fill="white"></path>
  <path d="M114.655 26.0728C114.491 25.8546 114.327 25.5819 114.164 25.4182C113.946 25.2546 113.782 25.0909 113.455 24.9273C113.236 24.7637 112.964 24.7091 112.746 24.6C112.527 24.5455 112.255 24.3819 112.036 24.2728C111.818 24.2182 111.655 24.0546 111.382 23.9455C111.218 23.8909 111.055 23.7273 111 23.5637C110.946 23.4 110.836 23.3455 110.836 23.0728C110.836 23.0182 110.836 22.9091 110.891 22.8546C110.946 22.8 111.055 22.6909 111.109 22.6364C111.164 22.5819 111.327 22.4728 111.491 22.4728C111.655 22.4182 111.818 22.4182 111.982 22.4182C112.309 22.4182 112.636 22.4728 112.964 22.7455C113.291 22.9091 113.509 23.2364 113.782 23.6182L113.836 23.7819L114.655 23.0728L114.6 22.9091C114.382 22.5819 114.218 22.4182 113.946 22.2C113.727 22.0364 113.564 21.8728 113.291 21.8182C113.018 21.7637 112.909 21.6546 112.636 21.6C112.091 21.5455 111.436 21.5455 110.946 21.6546C110.618 21.7091 110.4 21.8728 110.127 22.0364C109.909 22.2 109.746 22.4182 109.582 22.6909C109.418 22.9091 109.418 23.2364 109.418 23.5637C109.418 23.8909 109.473 24.2182 109.582 24.4364C109.636 24.6546 109.8 24.9273 110.073 25.0909C110.236 25.2546 110.455 25.4182 110.727 25.5819C110.946 25.7455 111.218 25.8 111.436 25.9637C111.655 26.0182 111.927 26.1819 112.146 26.2909C112.364 26.3455 112.527 26.5091 112.691 26.6182C112.855 26.6728 113.018 26.8364 113.073 27C113.127 27.1637 113.236 27.3273 113.236 27.4909C113.236 27.5455 113.236 27.7091 113.182 27.8182C113.127 27.8728 113.018 27.9819 112.964 28.1455C112.909 28.2 112.746 28.3091 112.582 28.3091C112.255 28.3637 111.927 28.3637 111.6 28.3091C111.436 28.2546 111.273 28.2546 111.109 28.0909C110.946 28.0364 110.782 27.8728 110.618 27.7091C110.455 27.5455 110.291 27.3819 110.127 27.1637L110.073 27L109.255 27.7091L109.309 27.8728C109.527 28.2 109.691 28.3637 109.964 28.5819C110.182 28.7455 110.455 28.9091 110.673 28.9637C110.891 29.0182 111.164 29.1273 111.382 29.1273C111.6 29.1273 111.764 29.1819 112.036 29.1819C112.527 29.1819 112.909 29.1273 113.236 29.0182C113.564 28.9091 113.891 28.8 114.109 28.5273C114.327 28.3091 114.491 28.0364 114.655 27.8182C114.709 27.6 114.818 27.2728 114.818 26.9455C114.818 26.5637 114.818 26.3455 114.655 26.0728Z" fill="white"></path>
  <path d="M22.7456 34.091C12.8183 34.091 4.74561 26.891 4.74561 18.0001C4.74561 9.10918 12.7638 1.90918 22.7456 1.90918C32.6729 1.90918 40.7456 9.10918 40.7456 18.0001C40.7456 26.7819 32.6183 34.091 22.7456 34.091Z" fill="white"></path>
  <path d="M22.7455 36C10.2545 36 0 27.9273 0 18C0 8.07273 10.1455 0 22.7455 0C35.2364 0 45.4909 8.07273 45.4909 18C45.4909 27.9273 35.1818 36 22.7455 36ZM22.6364 0.872727C11.1818 0.872727 1.85455 8.56364 1.85455 18C1.85455 27.4364 11.2364 35.1273 22.6364 35.1273C34.0364 35.1273 43.4182 27.4364 43.4182 18C43.4182 8.56364 34.1455 0.872727 22.6364 0.872727Z" fill="white"></path>
  <path d="M32.7819 11.1272C30.1638 13.6908 29.6729 14.3999 29.6729 15.8727V26.2908C29.6729 26.6181 29.891 26.9454 30.3274 26.9454H32.3456C32.6729 26.9454 33.0001 26.7272 33.0001 26.2908L32.7819 11.1272C32.891 11.1272 32.891 11.1272 32.7819 11.1272Z" fill="#919191"></path>
  <path d="M12.5456 11.1816C15.1638 13.7453 15.6547 14.4544 15.6547 15.9271V26.3453C15.6547 26.6726 15.4365 26.9998 15.0001 26.9998H12.9819C12.6547 26.9998 12.3274 26.7816 12.3274 26.3453L12.5456 11.1816C12.491 11.1816 12.491 11.1816 12.5456 11.1816Z" fill="#919191"></path>
  <path d="M27.5453 10.0911C26.9999 10.2547 26.3998 10.4183 26.3453 10.4729C24.818 12.0002 23.8908 13.3638 23.1271 14.4547C22.9635 14.782 22.7453 15.2729 22.6362 15.6547C22.6362 15.7092 22.6362 15.7092 22.6362 15.7092V15.6547C22.5817 15.2729 22.3089 14.782 22.1453 14.4547C21.4362 13.2547 20.4544 12.0002 18.9271 10.4729C18.8726 10.4183 18.2726 10.1456 17.7271 10.0911C17.7271 10.0911 17.6726 10.0911 17.7271 10.1456C19.9635 12.3274 20.618 13.0911 21.8726 14.8911C22.0908 15.2729 22.418 15.9274 22.5271 15.9274C22.6362 15.9274 22.5817 15.9274 22.6908 15.9274C22.7453 15.9274 22.7453 15.9274 22.8544 15.9274C22.9089 15.9274 23.1817 15.2729 23.5089 14.8911C24.7089 13.1456 25.3635 12.3274 27.5453 10.0911C27.5999 10.1456 27.5999 10.0911 27.5453 10.0911Z" fill="#919191"></path>
  <path d="M32.7817 9.10913C32.7271 9.10913 31.9089 9.10913 31.9089 9.10913C31.8544 9.10913 31.7453 9.10913 31.7453 9.16368C29.1817 11.6182 25.2544 16.2 23.9998 18.4364C23.6726 19.091 23.4544 19.6364 23.4544 19.8546C23.2907 19.8546 23.0726 19.8546 22.7998 19.8546C22.5271 19.8546 22.3089 19.8546 22.1453 19.8546C22.1453 19.691 21.9271 19.0364 21.5998 18.491C20.3453 16.3091 16.3089 11.6728 13.8544 9.27277C13.7453 9.27277 13.7453 9.27277 13.6907 9.27277C13.6907 9.27277 12.8726 9.27277 12.818 9.27277C12.7635 9.27277 12.6544 9.32731 12.7635 9.4364C13.2544 9.92731 20.9998 17.5091 21.7089 20.1819C21.7089 20.3455 22.5271 20.3455 22.9635 20.3455C23.3998 20.3455 24.1635 20.3455 24.218 20.1819C24.9271 17.5637 32.618 9.87277 33.1089 9.38186C32.9453 9.21822 32.8908 9.10913 32.7817 9.10913Z" fill="#919191"></path>
  <path d="M29.8362 9.76367C29.6725 9.76367 29.5089 9.76367 29.2907 9.81822C29.2362 9.81822 29.1271 9.81822 29.1271 9.87276C27.1089 11.5637 24.1089 15.3273 23.2907 16.7455C22.9635 17.2909 22.7998 17.7819 22.7453 18.1091V18.1637C22.7453 18.1637 22.7453 18.1637 22.7453 18.1091C22.6907 17.7819 22.5271 17.2909 22.1998 16.7455C21.3271 15.3273 18.3816 11.5637 16.3635 9.87276C16.2544 9.81822 16.1453 9.81822 16.0907 9.81822C15.8725 9.81822 15.7089 9.76367 15.5453 9.76367C15.4907 9.76367 15.4907 9.81822 15.4907 9.92731C17.3998 11.6728 21.4362 16.1455 22.1998 17.8364C22.3635 18.1637 22.5271 18.3819 22.5816 18.4909C22.6362 18.4909 22.7453 18.4909 22.7453 18.4909C22.7998 18.4909 22.9089 18.4909 22.9089 18.4909C22.9635 18.4909 23.1271 18.2728 23.2907 17.8364C24.1089 16.1455 28.0907 11.6728 29.9453 9.92731C29.9453 9.81822 29.9453 9.76367 29.8362 9.76367Z" fill="#919191"></path>
</svg>